<svg width="28" height="28" viewBox="0 0 28 28" fill="none" xmlns="http://www.w3.org/2000/svg">
<path d="M4.08334 4.1177C2.13027 6.07757 0.801723 8.57221 0.265468 11.2866C-0.270787 14.001 0.00929496 16.8135 1.07035 19.3688C2.1314 21.9241 3.92584 24.1077 6.22707 25.6439C8.52831 27.1801 11.2331 28 14 28C16.7669 28 19.4717 27.1801 21.7729 25.6439C24.0742 24.1077 25.8686 21.9241 26.9297 19.3688C27.9907 16.8135 28.2708 14.001 27.7345 11.2866C27.1983 8.57221 25.8697 6.07757 23.9167 4.1177C22.616 2.81253 21.0705 1.77695 19.3688 1.07034C17.6671 0.363733 15.8426 0 14 0C12.1574 0 10.3329 0.363733 8.63121 1.07034C6.92948 1.77695 5.38399 2.81253 4.08334 4.1177ZM22.2483 22.2827C20.6169 23.9147 18.5381 25.0262 16.2749 25.4766C14.0117 25.927 11.6657 25.6962 9.53369 24.8133C7.40168 23.9304 5.57938 22.435 4.29728 20.5164C3.01517 18.5977 2.33085 16.342 2.33085 14.0344C2.33085 11.7268 3.01517 9.471 4.29728 7.55235C5.57938 5.6337 7.40168 4.13836 9.53369 3.25544C11.6657 2.37252 14.0117 2.14169 16.2749 2.59214C18.5381 3.04258 20.6169 4.15407 22.2483 5.78604C24.4355 7.97386 25.6642 10.9408 25.6642 14.0344C25.6642 17.1279 24.4355 20.0949 22.2483 22.2827Z" fill="#56BEE3"/>
<rect x="8" y="13" width="12" height="2.53" rx="1.265" fill="#56BEE3"/>
</svg>
