<svg width="83" height="55" viewBox="0 0 83 55" fill="none" xmlns="http://www.w3.org/2000/svg">
<path d="M48.7106 27.3063C53.0096 24.8057 55.9042 20.1641 55.9213 14.8546C55.9213 6.90739 49.4471 0.45031 41.5171 0.45031C33.5699 0.45031 27.1128 6.90739 27.1128 14.8546C27.1128 20.1812 30.0245 24.8228 34.3235 27.3063C23.1392 30.4577 14.918 40.7343 14.9009 52.9119C14.9009 53.7341 15.5689 54.402 16.391 54.402C17.2131 54.402 17.8811 53.7341 17.8811 52.9119C17.8811 39.8779 28.5001 29.2588 41.5342 29.2588C54.5682 29.2588 65.1531 39.8608 65.1531 52.9119C65.1531 53.7341 65.821 54.402 66.6432 54.402C67.4653 54.402 68.1333 53.7341 68.1333 52.9119C68.1161 40.7343 59.8949 30.4577 48.7106 27.3063ZM30.0587 14.8546C30.0587 8.55163 35.197 3.41337 41.4999 3.41337C47.8029 3.41337 52.9411 8.55163 52.9411 14.8546C52.9411 21.1575 47.8029 26.2958 41.4999 26.2958C35.197 26.2958 30.0587 21.1575 30.0587 14.8546Z" fill="#58BFE9"/>
<path d="M27.3869 29.7898C28.072 30.2351 28.9969 30.0296 29.4422 29.3445C29.8875 28.6594 29.682 27.7345 28.9969 27.2892C27.7124 26.4671 26.3421 25.8334 24.9206 25.3367C27.5411 23.4526 29.271 20.3697 29.271 16.8928C29.271 11.1551 24.5951 6.47925 18.8574 6.47925C13.1197 6.47925 8.44387 11.1551 8.44387 16.8928C8.44387 20.3697 10.1738 23.4526 12.7943 25.3538C5.36092 27.8715 0 34.911 0 43.1836C0 44.0057 0.667974 44.6737 1.4901 44.6737C2.31222 44.6737 2.98019 44.0057 2.98019 43.1836C2.98019 34.4314 10.1052 27.3063 18.8574 27.3063C21.889 27.3063 24.8349 28.1627 27.3869 29.7898ZM11.4069 16.8928C11.4069 12.7993 14.7468 9.45944 18.8403 9.45944C22.9338 9.45944 26.2736 12.7993 26.2736 16.8928C26.2736 20.9863 22.9338 24.3261 18.8403 24.3261C14.7468 24.3261 11.4069 21.0034 11.4069 16.8928Z" fill="#58BFE9"/>
<path d="M70.2056 25.3538C72.8433 23.4698 74.556 20.3868 74.556 16.8928C74.556 11.1551 69.8802 6.47925 64.1425 6.47925C58.4048 6.47925 53.7289 11.1551 53.7289 16.8928C53.7289 20.3697 55.4417 23.4526 58.0793 25.3367C56.6577 25.8162 55.2875 26.4671 54.003 27.2892C53.3179 27.7345 53.1123 28.6423 53.5577 29.3445C54.003 30.0296 54.9107 30.2351 55.613 29.7898C58.165 28.1627 61.1109 27.3063 64.1425 27.3063C72.8946 27.3063 80.0197 34.4314 80.0197 43.1836C80.0197 44.0057 80.6877 44.6737 81.5098 44.6737C82.3319 44.6737 82.9999 44.0057 82.9999 43.1836C82.9999 34.911 77.639 27.8715 70.2056 25.3538ZM56.7091 16.8928C56.7091 12.7993 60.049 9.45944 64.1425 9.45944C68.236 9.45944 71.5758 12.7993 71.5758 16.8928C71.5758 20.9863 68.236 24.3261 64.1425 24.3261C60.049 24.3261 56.7091 21.0034 56.7091 16.8928Z" fill="#58BFE9"/>
</svg>
