<svg width="49" height="61" viewBox="0 0 49 61" fill="none" xmlns="http://www.w3.org/2000/svg">
<path d="M24.2582 3.65626C24.9998 3.80583 25.7477 3.94917 26.4893 4.09874C28.2654 4.45397 30.0416 4.80297 31.8177 5.1582C33.974 5.58821 36.1366 6.012 38.2929 6.44201C40.1563 6.80971 42.0259 7.18364 43.8893 7.55133C44.793 7.73206 45.6967 7.93772 46.6003 8.08729C46.6128 8.08729 46.6252 8.09352 46.6377 8.09352C46.1828 7.49524 45.7216 6.89073 45.2666 6.29244C45.2666 7.57626 45.2666 8.86007 45.2666 10.1501C45.2666 13.1166 45.2666 16.0769 45.2666 19.0434C45.2666 22.3401 45.2666 25.6369 45.2666 28.94C45.2666 31.2521 45.2666 33.5642 45.2666 35.8825C45.2666 36.4372 45.2916 36.9981 45.2417 37.5465C45.2293 37.6462 45.223 37.7459 45.2043 37.8457C45.2293 37.6774 45.2479 37.5154 45.2729 37.3471C45.1233 38.4564 44.7805 39.5283 44.3505 40.5566C44.4128 40.4071 44.4752 40.2575 44.5375 40.1079C44.1262 41.0739 43.6276 42.0025 43.0667 42.8937C42.7239 43.4359 42.3562 43.9594 41.9636 44.4704C41.9387 44.5016 41.92 44.5265 41.8951 44.5576C41.733 44.7695 42.2004 44.1713 42.0696 44.3333C42.0197 44.3956 41.9699 44.4642 41.9138 44.5265C41.7954 44.6761 41.6769 44.8194 41.5585 44.969C41.3217 45.2556 41.0724 45.5423 40.8231 45.8228C39.6577 47.1191 38.3802 48.3094 37.0278 49.4187C36.8471 49.5683 36.6663 49.7116 36.4794 49.8612C36.3859 49.936 36.2924 50.0108 36.1989 50.0793C36.093 50.1666 35.8873 50.3161 36.3547 49.9609C36.2924 50.0108 36.2238 50.0606 36.1615 50.1105C35.7377 50.4345 35.3077 50.7461 34.8715 51.0515C33.9429 51.7121 32.9894 52.3353 32.0172 52.9274C29.381 54.5477 26.6201 55.9562 23.8032 57.2213C24.2831 57.159 24.763 57.0967 25.2428 57.0344C24.7069 56.8412 24.1772 56.623 23.6474 56.4049C23.797 56.4672 23.9466 56.5295 24.0961 56.5919C21.4911 55.495 18.9671 54.1925 16.5615 52.703C15.77 52.2169 14.991 51.7059 14.2307 51.1699C13.8443 50.9019 13.4641 50.6215 13.084 50.3411C12.9905 50.2725 12.9033 50.2039 12.8098 50.1354C12.7537 50.0918 12.7038 50.0544 12.6477 50.0107C13.1338 50.3847 12.9656 50.26 12.8659 50.179C12.6602 50.017 12.4483 49.8549 12.2489 49.6867C10.6971 48.4278 9.23254 47.0505 7.93002 45.5299C7.74306 45.3117 7.56856 45.0998 7.38783 44.8755C7.27565 44.7384 6.94535 44.3021 7.37537 44.863C7.28812 44.7508 7.20087 44.6387 7.11985 44.5265C6.78331 44.0715 6.45924 43.6041 6.15387 43.1305C5.54312 42.177 5.01339 41.1736 4.57091 40.1266C4.63323 40.2762 4.69555 40.4258 4.75788 40.5753C4.27177 39.4286 3.90408 38.2383 3.66726 37.0106C3.69218 37.1788 3.71088 37.3409 3.73581 37.5091C3.73581 36.4808 3.73581 35.4463 3.73581 34.418C3.73581 31.9438 3.73581 29.4697 3.73581 26.9955C3.73581 24.0041 3.73581 21.0127 3.73581 18.0151C3.73581 15.4287 3.73581 12.8424 3.73581 10.2498C3.73581 8.99095 3.7732 7.73206 3.73581 6.47941C3.73581 6.46071 3.73581 6.44201 3.73581 6.42332C3.28086 7.0216 2.81969 7.62612 2.36474 8.2244C3.11883 8.07483 3.87292 7.92526 4.63323 7.76945C6.45924 7.40799 8.28526 7.0403 10.1113 6.67883C12.3112 6.24259 14.5111 5.8001 16.7111 5.36386C18.6119 4.9837 20.5189 4.60354 22.4197 4.22338C23.3483 4.03642 24.2893 3.88061 25.2117 3.66872C25.2242 3.66872 25.2366 3.66249 25.2491 3.66249C26.2088 3.46929 26.8507 2.27273 26.5578 1.36284C26.2275 0.340769 25.2865 -0.145336 24.2582 0.0540914C23.5041 0.203662 22.75 0.353233 21.9897 0.509036C20.1637 0.870499 18.3377 1.23819 16.5117 1.59966C14.3117 2.03591 12.1118 2.47839 9.91184 2.91463C8.01104 3.29479 6.10401 3.67495 4.20322 4.05511C3.28086 4.24207 2.32735 4.37918 1.41123 4.60977C1.39876 4.616 1.3863 4.616 1.37384 4.616C0.576125 4.7718 0.00276983 5.6443 0.00276983 6.41708C0.00276983 7.27712 0.00276983 8.13715 0.00276983 8.99718C0.00276983 11.1161 0.00276983 13.235 0.00276983 15.3539C0.00276983 18.0338 0.00276983 20.7073 0.00276983 23.3871C0.00276983 25.961 0.00276983 28.5411 0.00276983 31.115C0.00276983 32.86 0.00276983 34.6112 0.00276983 36.3562C0.00276983 36.7114 -0.00346229 37.0729 0.00276983 37.4281C0.00900195 37.908 0.146108 38.4065 0.264519 38.874C0.451482 39.6405 0.694535 40.3884 0.981212 41.1238C2.23387 44.3084 4.19075 47.1191 6.57765 49.562C8.76513 51.8118 11.2891 53.75 13.9253 55.4389C15.9882 56.7664 18.1507 57.9442 20.3756 58.985C21.6158 59.5646 22.8746 60.1442 24.1647 60.5929C24.9686 60.8733 25.7414 60.4184 26.4643 60.0881C27.6048 59.5646 28.7328 59.0162 29.8484 58.4366C31.8053 57.4207 33.7185 56.3114 35.5632 55.0899C38.4238 53.1891 41.1659 51.0141 43.4718 48.4527C45.0174 46.7327 46.4258 44.8256 47.4292 42.7379C48.0524 41.4478 48.5821 40.0768 48.8252 38.6621C48.9187 38.1012 49.0059 37.534 48.9997 36.9669C48.9997 35.9324 48.9997 34.8979 48.9997 33.8633C48.9997 31.6385 48.9997 29.4198 48.9997 27.195C48.9997 24.4965 48.9997 21.798 48.9997 19.1057C48.9997 16.6191 48.9997 14.1262 48.9997 11.6396C48.9997 10.0753 48.9997 8.51108 48.9997 6.94058C48.9997 6.72246 48.9997 6.51057 48.9997 6.29244C48.9997 5.51966 48.4263 4.64716 47.6286 4.49136C46.887 4.34179 46.1391 4.19845 45.3975 4.04888C43.6214 3.69365 41.8452 3.34465 40.0691 2.98942C37.9127 2.5594 35.7502 2.13562 33.5939 1.7056C31.7367 1.33791 29.8671 0.970213 28.0037 0.596286C27.1 0.415554 26.1964 0.228591 25.2927 0.0603235C25.2802 0.0603235 25.2678 0.0540914 25.2553 0.0540914C24.7567 -0.0456225 24.2644 -0.0206941 23.8157 0.241055C23.4293 0.465411 23.0554 0.914124 22.9557 1.3566C22.7375 2.28519 23.2299 3.45683 24.2582 3.65626Z" fill="#58BFE9"/>
<path d="M11.6008 28.6035C12.4733 29.476 13.352 30.3547 14.2245 31.2272C15.6268 32.6294 17.0352 34.0379 18.4375 35.4401C18.7615 35.7642 19.0794 36.082 19.4034 36.4061C20.1201 37.1228 21.3292 37.1228 22.0459 36.4061C22.5507 35.9013 23.0617 35.3903 23.5665 34.8854C24.7942 33.6577 26.0157 32.4362 27.2434 31.2085C28.7205 29.7315 30.1975 28.2545 31.6682 26.7837C32.9521 25.4999 34.2359 24.2161 35.5197 22.9322C36.1429 22.309 36.7786 21.6983 37.3893 21.0626C37.3956 21.0501 37.408 21.0439 37.4143 21.0377C38.106 20.3459 38.1559 19.0746 37.4143 18.3953C36.6664 17.7097 35.5072 17.6536 34.7718 18.3953C34.267 18.9001 33.756 19.4111 33.2512 19.9159C32.0235 21.1436 30.802 22.3651 29.5743 23.5928C28.0972 25.0699 26.6202 26.5469 25.1494 28.0177C23.8656 29.3015 22.5818 30.5853 21.298 31.8691C20.6748 32.4923 20.0329 33.0968 19.4284 33.7387C19.4221 33.7512 19.4097 33.7574 19.4034 33.7637C20.2822 33.7637 21.1671 33.7637 22.0459 33.7637C21.1734 32.8912 20.2946 32.0124 19.4221 31.1399C18.0199 29.7377 16.6114 28.3293 15.2092 26.927C14.8851 26.603 14.5673 26.2851 14.2432 25.9611C13.5515 25.2693 12.2801 25.2194 11.6008 25.9611C10.9153 26.7027 10.8592 27.8619 11.6008 28.6035Z" fill="#58BFE9"/>
</svg>
