<svg width="86" height="92" viewBox="0 0 86 92" fill="none" xmlns="http://www.w3.org/2000/svg">
<path d="M79.3916 91.7823H70.9477C67.2764 91.7823 64.3394 88.7535 64.3394 85.174V65.7162C64.3394 62.0449 67.3682 59.1079 70.9477 59.1079H71.6819C72.2326 59.1079 72.6915 59.5668 72.6915 60.1175C72.6915 60.6682 72.2326 61.1271 71.6819 61.1271H70.9477C68.3778 61.1271 66.2668 63.2381 66.2668 65.808V85.174C66.2668 87.7439 68.3778 89.8549 70.9477 89.8549H79.3916C81.9616 89.8549 84.0725 87.7439 84.0725 85.174V65.7162C84.0725 63.1463 81.9616 61.0353 79.3916 61.0353H78.6574C78.1067 61.0353 77.6478 60.5764 77.6478 60.0257C77.6478 59.475 78.1067 59.0161 78.6574 59.0161H79.3916C83.0629 59.0161 86 62.0449 86 65.6244V84.9905C86 88.7535 83.0629 91.7823 79.3916 91.7823Z" fill="#58BFE9"/>
<path d="M75.0778 76.9134C72.4162 76.9134 70.2134 74.7107 70.2134 72.049C70.2134 69.3873 72.4162 67.1845 75.0778 67.1845C77.7395 67.1845 79.9423 69.3873 79.9423 72.049C80.0341 74.7107 77.8313 76.9134 75.0778 76.9134ZM75.0778 69.1119C73.4258 69.1119 72.1408 70.3969 72.1408 72.049C72.1408 73.7011 73.4258 74.986 75.0778 74.986C76.7299 74.986 78.0149 73.7011 78.0149 72.049C78.0149 70.3969 76.7299 69.1119 75.0778 69.1119Z" fill="#58BFE9"/>
<path d="M75.078 69.1121C74.5273 69.1121 74.0684 68.6532 74.0684 68.1025V60.1174C74.0684 59.5667 74.5273 59.1078 75.078 59.1078C75.6287 59.1078 76.0876 59.5667 76.0876 60.1174V68.1025C76.0876 68.6532 75.6287 69.1121 75.078 69.1121Z" fill="#58BFE9"/>
<path d="M37.5391 79.9423C35.1527 79.9423 31.7568 79.1163 29.0951 76.6382C26.5252 74.2518 25.2402 70.9477 25.2402 67.0928V51.5816C25.2402 51.0309 25.6991 50.572 26.2498 50.572C26.8005 50.572 27.2594 51.0309 27.2594 51.5816V67.0928C27.2594 70.4888 28.3608 73.2422 30.4718 75.2614C32.9499 77.556 36.1623 78.1985 38.1815 78.1067C43.046 77.7396 45.983 73.6094 48.2776 69.5709C49.4707 67.4599 50.4804 65.1654 51.49 62.9626C52.5913 60.5763 53.7845 58.0064 55.1612 55.62C57.7312 51.1227 61.4024 45.8911 67.0012 44.6979C69.2957 44.239 71.8656 44.8815 73.793 46.35C75.1698 47.635 76.0876 49.4706 76.0876 51.398V60.0256C76.0876 60.5763 75.6287 61.0352 75.078 61.0352C74.5273 61.0352 74.0684 60.5763 74.0684 60.0256V51.398C74.0684 49.5624 73.1506 48.461 72.3245 47.8185C70.9478 46.7172 68.9286 46.1665 67.1847 46.5336C62.4121 47.5432 59.1079 52.3159 56.7215 56.4461C55.4366 58.7406 54.2434 61.2188 53.142 63.6051C52.1324 65.8079 51.031 68.1024 49.8379 70.3052C47.4515 74.5272 44.0556 79.3916 38.1815 79.8505C37.998 79.9423 37.8144 79.9423 37.5391 79.9423Z" fill="#58BFE9"/>
<path d="M51.3063 27.0759H1.0096C0.458911 27.0759 0 26.6169 0 26.0662C0 25.5156 0.458911 25.0566 1.0096 25.0566H51.3063C51.857 25.0566 52.3159 25.5156 52.3159 26.0662C52.3159 26.6169 51.857 27.0759 51.3063 27.0759Z" fill="#58BFE9"/>
<path d="M26.158 27.0758C25.6073 27.0758 25.1484 26.6169 25.1484 26.0662V1.0096C25.2402 0.458911 25.6073 0 26.158 0C26.7087 0 27.1676 0.458911 27.1676 1.0096V26.1579C27.1676 26.7086 26.7087 27.0758 26.158 27.0758Z" fill="#58BFE9"/>
<path d="M51.3063 27.1675C50.7556 27.1675 50.2967 26.7086 50.2967 26.1579C50.3885 12.8495 39.5582 1.92743 26.1579 1.92743C12.7577 1.92743 2.01921 12.7577 2.01921 26.1579C2.01921 26.7086 1.5603 27.1675 1.0096 27.1675C0.458911 27.1675 0 26.7086 0 26.1579C0.0917823 11.7481 11.7481 0 26.1579 0C40.5678 0 52.2241 11.7481 52.2241 26.1579C52.3159 26.7086 51.857 27.1675 51.3063 27.1675Z" fill="#58BFE9"/>
<path d="M12.7577 27.0758C12.207 27.0758 11.748 26.6168 11.748 26.0661C11.748 14.2262 16.4289 7.34256 20.4674 3.67127C20.8345 3.30414 21.477 3.30414 21.8441 3.76306C22.2112 4.13018 22.2112 4.77266 21.7523 5.13979C18.081 8.53573 13.6755 14.9605 13.6755 26.0661C13.6755 26.6168 13.2166 27.0758 12.7577 27.0758Z" fill="#58BFE9"/>
<path d="M39.6497 27.0758C39.099 27.0758 38.6401 26.6169 38.6401 26.0662C38.6401 14.9605 34.2346 8.53577 30.5633 5.13982C30.1962 4.77269 30.1044 4.13022 30.4715 3.76309C30.8386 3.39596 31.4811 3.30418 31.8482 3.67131C35.7949 7.3426 40.5676 14.2263 40.5676 26.0662C40.6593 26.6169 40.2004 27.0758 39.6497 27.0758Z" fill="#58BFE9"/>
<path d="M26.1577 16.3372C11.8397 16.3372 7.98483 8.81109 7.80126 8.53574C7.52592 8.07683 7.80126 7.43435 8.26018 7.25079C8.71909 6.97544 9.36156 7.25079 9.54513 7.7097C9.63691 7.98505 13.1246 14.4098 26.1577 14.4098C26.7084 14.4098 27.1673 14.8687 27.1673 15.4194C27.1673 15.9701 26.7084 16.3372 26.1577 16.3372Z" fill="#58BFE9"/>
<path d="M26.158 16.3373C25.6073 16.3373 25.1484 15.8783 25.1484 15.3277C25.1484 14.777 25.6073 14.3181 26.158 14.3181C39.2829 14.3181 42.7706 7.61795 42.7706 7.61795C43.046 7.15903 43.5967 6.97547 44.0556 7.15903C44.5145 7.43438 44.6981 7.98507 44.5145 8.44399C44.4227 8.81111 40.4761 16.3373 26.158 16.3373Z" fill="#58BFE9"/>
<path d="M26.158 52.2242C25.6073 52.2242 25.1484 51.7653 25.1484 51.2146V26.0662C25.1484 25.5156 25.6073 25.0566 26.158 25.0566C26.7087 25.0566 27.1676 25.5156 27.1676 26.0662V51.2146C27.1676 51.7653 26.7087 52.2242 26.158 52.2242Z" fill="#58BFE9"/>
<path d="M26.158 52.2241C11.7481 52.2241 0.0917969 40.476 0.0917969 26.158C0.0917969 25.6073 0.550708 25.1484 1.1014 25.1484C1.6521 25.1484 2.11101 25.6073 2.11101 26.158C2.11101 39.4664 12.9413 50.2967 26.2497 50.2967C39.5582 50.2967 50.3885 39.4664 50.3885 26.158C50.3885 25.6073 50.8474 25.1484 51.3981 25.1484C51.9488 25.1484 52.4077 25.6073 52.4077 26.158C52.3159 40.5678 40.5678 52.2241 26.158 52.2241Z" fill="#58BFE9"/>
<path d="M32.1239 47.9104C31.8485 47.9104 31.665 47.8186 31.4814 47.635C31.1143 47.2679 31.1143 46.6254 31.4814 46.2583C34.7856 42.8623 38.7322 36.6212 38.7322 26.158C38.7322 25.6073 39.1911 25.1484 39.7418 25.1484C40.2925 25.1484 40.7514 25.6073 40.7514 26.158C40.7514 37.2636 36.5294 43.9637 32.9499 47.635C32.6746 47.8186 32.3992 47.9104 32.1239 47.9104Z" fill="#58BFE9"/>
<path d="M20.192 47.9104C19.9167 47.9104 19.6413 47.8186 19.4577 47.635C15.8782 43.9637 11.6562 37.2636 11.6562 26.158C11.6562 25.6073 12.1152 25.1484 12.6659 25.1484C13.2165 25.1484 13.6755 25.6073 13.6755 26.158C13.6755 36.6212 17.6221 42.8623 20.9263 46.2583C21.2934 46.6254 21.2934 47.2679 20.9263 47.635C20.6509 47.8186 20.4673 47.9104 20.192 47.9104Z" fill="#58BFE9"/>
<path d="M43.6885 45.1569C43.3213 45.1569 42.9542 44.9733 42.8624 44.6062C42.6789 44.3308 39.2829 37.9061 26.2498 37.9061C25.6991 37.9061 25.2402 37.4472 25.2402 36.8965C25.2402 36.3458 25.6991 35.8869 26.2498 35.8869C40.5679 35.8869 44.4227 43.413 44.6063 43.6884C44.8816 44.1473 44.6063 44.7898 44.1474 44.9733C43.9638 45.1569 43.7803 45.1569 43.6885 45.1569Z" fill="#58BFE9"/>
<path d="M8.71961 45.1568C8.53605 45.1568 8.44426 45.1568 8.2607 45.065C7.80179 44.7897 7.61822 44.239 7.80179 43.7801C7.98535 43.5048 11.8402 35.9786 26.1582 35.9786C26.7089 35.9786 27.1678 36.4375 27.1678 36.9882C27.1678 37.5389 26.7089 37.9978 26.1582 37.9978C13.1252 37.9978 9.72922 44.4226 9.54565 44.6979C9.36209 44.9733 9.08674 45.1568 8.71961 45.1568Z" fill="#58BFE9"/>
</svg>
