<svg width="30" height="30" viewBox="0 0 30 30" fill="none" xmlns="http://www.w3.org/2000/svg">
<path d="M8.10724 0.0035039C7.77222 0.0403016 7.49275 0.358835 7.5 0.695643V5.46608C7.49491 5.82612 7.82157 6.15726 8.18182 6.15726C8.54207 6.15726 8.86873 5.82612 8.86364 5.46608V0.695643C8.87197 0.309048 8.49179 -0.038837 8.10724 0.0035039ZM21.7436 0.0035039C21.4086 0.0403016 21.1291 0.358835 21.1364 0.695643V5.46608C21.1313 5.82612 21.4579 6.15726 21.8182 6.15726C22.1784 6.15726 22.5051 5.82612 22.5 5.46608V0.695643C22.5083 0.309048 22.1282 -0.038837 21.7436 0.0035039ZM3.75 2.39938C1.68429 2.39938 0 4.08286 0 6.14757V25.57C0 27.6347 1.68429 29.3182 3.75 29.3182H26.25C28.3157 29.3182 30 27.6347 30 25.57V6.14757C30 4.08286 28.3157 2.39938 26.25 2.39938H24.5455C24.1852 2.3943 23.8539 2.72079 23.8539 3.08086C23.8539 3.44094 24.1852 3.76744 24.5455 3.76235H26.25C27.5838 3.76235 28.6364 4.81437 28.6364 6.14757V25.57C28.6364 26.9032 27.5838 27.9552 26.25 27.9552H3.75C2.41616 27.9552 1.36364 26.9032 1.36364 25.57V9.89576H26.5909C26.9511 9.90084 27.2824 9.57435 27.2824 9.21427C27.2824 8.8542 26.9511 8.52767 26.5909 8.53277H1.36364V6.14757C1.36364 4.81437 2.41616 3.76235 3.75 3.76235H5.45455C5.81476 3.76743 6.14607 3.44094 6.14607 3.08086C6.14607 2.72079 5.81476 2.39429 5.45455 2.39938H3.75ZM10.8452 2.39938C10.4881 2.41605 10.1784 2.75593 10.1952 3.1128C10.2119 3.46968 10.552 3.77915 10.9091 3.76235H19.0909C19.4511 3.76743 19.7824 3.44094 19.7824 3.08086C19.7824 2.72079 19.4511 2.39429 19.0909 2.39938C16.3441 2.39938 13.5873 2.39938 10.8452 2.39938ZM9.88636 13.6439C8.38657 13.6439 7.15909 15.0403 7.15909 16.7106C7.154 17.0707 7.48066 17.4018 7.84091 17.4018C8.20116 17.4018 8.52782 17.0707 8.52273 16.7106C8.52273 15.7382 9.32583 15.0069 9.88636 15.0069H10.9091C11.4696 15.0069 12.2727 15.7382 12.2727 16.7106C12.2727 17.2555 12.1308 17.7212 11.9318 18.0097C11.7329 18.2982 11.5303 18.4144 11.25 18.4144H9.70526C9.34504 18.4093 9.01373 18.7358 9.01373 19.0959C9.01373 19.4559 9.34504 19.7824 9.70526 19.7773H11.25C11.5303 19.7773 11.7328 19.8829 11.9318 20.1713C12.1308 20.4598 12.2727 20.9363 12.2727 21.4811C12.2727 22.4535 11.4696 23.1848 10.9091 23.1848H9.88636C9.32581 23.1848 8.52273 22.4535 8.52273 21.4811C8.52782 21.121 8.20116 20.7899 7.84091 20.7899C7.48066 20.7899 7.154 21.121 7.15909 21.4811C7.15909 23.1514 8.38658 24.5478 9.88636 24.5478H10.9091C12.4089 24.5478 13.6364 23.1514 13.6364 21.4811C13.6364 20.7045 13.4462 19.9785 13.0504 19.4047C12.9741 19.294 12.8892 19.193 12.7947 19.0959C12.8892 18.9981 12.9741 18.8871 13.0504 18.7764C13.4462 18.2026 13.6364 17.4872 13.6364 16.7106C13.6364 15.0403 12.4089 13.6439 10.9091 13.6439H9.88636ZM19.1868 13.6439C18.8744 13.605 18.6797 13.8055 18.505 13.9741C17.6828 14.8046 16.8804 15.5982 16.2358 16.2208C15.9346 16.4537 15.897 16.9559 16.1602 17.231C16.4235 17.5061 16.9271 17.4909 17.1733 17.2004C17.892 16.5068 18.0545 16.3385 18.4091 15.9865C18.4092 18.3667 18.4092 20.8342 18.4091 23.1847C17.8228 23.1847 17.2217 23.1847 16.6406 23.1847C16.2836 23.2014 15.9739 23.5412 15.9906 23.8981C16.0074 24.255 16.3475 24.5645 16.7045 24.5477H21.4773C21.8375 24.5528 22.1688 24.2263 22.1688 23.8662C22.1688 23.5061 21.8375 23.1796 21.4773 23.1847H19.7727C19.7727 20.2803 19.7728 16.747 19.7727 14.2401C19.7605 13.9911 19.4716 13.7095 19.1868 13.6438V13.6439Z" fill="#C4C4C4"/>
</svg>
