<svg width="163" height="43" viewBox="0 0 163 43" fill="none" xmlns="http://www.w3.org/2000/svg">
<path d="M59.3047 27L63.623 12.498H61.2383L58.7891 21.0059C58.6315 21.5501 58.3379 22.8177 57.9082 24.8086C57.4499 22.8893 57.1419 21.6432 56.9844 21.0703L54.5566 12.498H52.0645L56.3398 27H59.3047ZM67.2754 27V16.2578H65.041V27H67.2754ZM67.6191 13.1211C67.6191 12.3906 67.3184 11.9108 66.7168 11.6816C66.5306 11.6243 66.3516 11.5957 66.1797 11.5957C65.5352 11.5957 65.0983 11.8822 64.8691 12.4551C64.7832 12.6699 64.7402 12.8919 64.7402 13.1211C64.7402 13.8945 65.041 14.3958 65.6426 14.625C65.8145 14.6823 65.9863 14.7109 66.1582 14.7109C66.8027 14.7109 67.2467 14.4245 67.4902 13.8516C67.5762 13.6224 67.6191 13.3789 67.6191 13.1211ZM77.1152 27.2793C77.4303 27.2793 77.7741 27.2363 78.1465 27.1504L78.0605 25.5176C77.9746 25.5319 77.8743 25.5391 77.7598 25.5391C77.2728 25.5391 76.9935 25.2812 76.9219 24.7656C76.9076 24.6367 76.9004 24.4935 76.9004 24.3359V19.6094C76.9004 17.8763 76.2272 16.7591 74.8809 16.2578C74.4225 16.0859 73.9141 16 73.3555 16C71.9948 16 70.7129 16.3509 69.5098 17.0527C69.4811 17.0814 69.4525 17.1029 69.4238 17.1172L70.1973 18.75C71.2428 18.1628 72.138 17.8691 72.8828 17.8691C74.0143 17.9837 74.6087 18.5924 74.666 19.6953V20.6191C74.179 20.5905 73.8424 20.5762 73.6562 20.5762C71.6654 20.5762 70.2975 21.1348 69.5527 22.252C69.2233 22.7533 69.0586 23.319 69.0586 23.9492C69.0586 25.3099 69.5742 26.2767 70.6055 26.8496C71.1211 27.1361 71.6868 27.2793 72.3027 27.2793C73.3913 27.2793 74.2507 26.8568 74.8809 26.0117C74.9525 25.9115 75.0169 25.8184 75.0742 25.7324C75.3177 26.7493 75.998 27.265 77.1152 27.2793ZM72.7969 25.4746C72.0521 25.4746 71.5866 25.138 71.4004 24.4648C71.3574 24.3073 71.3359 24.1354 71.3359 23.9492C71.3646 22.7174 72.1738 22.0944 73.7637 22.0801C74.179 22.0801 74.4798 22.0872 74.666 22.1016V23.0469C74.666 24.4792 74.1576 25.2812 73.1406 25.4531C73.026 25.4674 72.9115 25.4746 72.7969 25.4746ZM82.0566 28.1602V16.2578H79.8223V28.2246C79.7936 29.2415 79.4284 29.7572 78.7266 29.7715C78.4115 29.7572 78.0104 29.6283 77.5234 29.3848L76.8574 31.082C77.5306 31.4258 78.2682 31.5977 79.0703 31.5977C80.3164 31.5977 81.1901 31.0605 81.6914 29.9863C81.9349 29.4564 82.0566 28.8477 82.0566 28.1602ZM82.4004 13.1211C82.4004 12.362 82.0853 11.8822 81.4551 11.6816C81.2975 11.6243 81.1328 11.5957 80.9609 11.5957C80.2878 11.5957 79.8438 11.8893 79.6289 12.4766C79.5573 12.6771 79.5215 12.8919 79.5215 13.1211C79.5215 13.8802 79.8294 14.3743 80.4453 14.6035C80.6029 14.6608 80.7676 14.6895 80.9395 14.6895C81.5697 14.6895 82.0065 14.4102 82.25 13.8516C82.3503 13.6224 82.4004 13.3789 82.4004 13.1211ZM92.7559 26.1836L92.0898 24.6797C91.1159 25.1953 90.1992 25.4531 89.3398 25.4531C88.0651 25.4531 87.2057 24.8158 86.7617 23.541C86.6328 23.1257 86.5469 22.6745 86.5039 22.1875H92.9707V21.5C92.9707 17.9336 91.6673 16.0931 89.0605 15.9785C88.9603 15.9785 88.8672 15.9785 88.7812 15.9785C87.2201 15.9785 86.0169 16.6087 85.1719 17.8691C84.513 18.8431 84.1836 20.0677 84.1836 21.543C84.1836 23.8346 84.8997 25.4746 86.332 26.4629C87.1341 27.0072 88.0651 27.2793 89.125 27.2793C90.3997 27.265 91.61 26.8997 92.7559 26.1836ZM88.7598 17.7188C89.7624 17.7188 90.3854 18.2917 90.6289 19.4375C90.6862 19.7669 90.7148 20.1178 90.7148 20.4902L86.5469 20.5332C86.7617 18.929 87.3561 18.0052 88.3301 17.7617C88.4733 17.7331 88.6165 17.7188 88.7598 17.7188ZM101.264 23.9492C101.264 22.8034 100.684 21.8939 99.5234 21.2207C99.2943 21.0918 98.9362 20.9199 98.4492 20.7051C97.5612 20.2897 97.0098 19.9316 96.7949 19.6309C96.6517 19.416 96.5801 19.194 96.5801 18.9648C96.5801 18.3346 96.888 17.9264 97.5039 17.7402C97.6758 17.6973 97.8477 17.6758 98.0195 17.6758C98.7643 17.6758 99.3372 17.9622 99.7383 18.5352C99.7812 18.6068 99.8171 18.6641 99.8457 18.707L101.307 17.8477C100.805 16.8021 99.903 16.1934 98.5996 16.0215C98.3848 15.9928 98.1771 15.9785 97.9766 15.9785C96.8021 15.9785 95.8568 16.3509 95.1406 17.0957C94.625 17.64 94.3672 18.2773 94.3672 19.0078C94.3672 20.1966 94.9473 21.1276 96.1074 21.8008C96.3366 21.9297 96.6947 22.1087 97.1816 22.3379C98.0697 22.7389 98.6211 23.097 98.8359 23.4121C98.9792 23.627 99.0508 23.8561 99.0508 24.0996C99.0508 24.8158 98.6999 25.2741 97.998 25.4746C97.8118 25.5176 97.6185 25.5391 97.418 25.5391C96.5156 25.5247 95.6562 25.2454 94.8398 24.7012L94.002 26.0547C95.0475 26.8711 96.2148 27.2793 97.5039 27.2793C98.8359 27.2793 99.86 26.8496 100.576 25.9902C101.035 25.4173 101.264 24.737 101.264 23.9492ZM117.484 25.0879H112.156V20.4473H116.668V18.5566H112.156V14.4102H117.291V12.498H109.879V27H117.484V25.0879ZM123.264 22.252C122.505 22.252 121.967 21.8939 121.652 21.1777C121.509 20.8483 121.438 20.4759 121.438 20.0605C121.438 18.929 121.824 18.2129 122.598 17.9121C122.798 17.8405 123.006 17.8047 123.221 17.8047C123.994 17.8047 124.538 18.1771 124.854 18.9219C124.982 19.2513 125.047 19.6309 125.047 20.0605C125.047 21.1348 124.667 21.8223 123.908 22.123C123.708 22.209 123.493 22.252 123.264 22.252ZM123.264 16.0859C121.774 16.0859 120.657 16.6159 119.912 17.6758C119.439 18.3633 119.203 19.1725 119.203 20.1035C119.217 21.3496 119.64 22.3236 120.471 23.0254C119.726 23.541 119.346 24.1999 119.332 25.002C119.346 25.7181 119.676 26.2839 120.32 26.6992C119.303 27.401 118.788 28.1673 118.773 28.998C118.773 30.015 119.396 30.7598 120.643 31.2324C121.316 31.4759 122.082 31.5977 122.941 31.5977C125.076 31.5977 126.601 31.0319 127.518 29.9004C127.962 29.3418 128.184 28.7259 128.184 28.0527C128.184 26.9499 127.646 26.1549 126.572 25.668C125.942 25.3958 125.204 25.2598 124.359 25.2598L122.318 25.3027C121.545 25.3027 121.151 25.0521 121.137 24.5508C121.165 24.2357 121.366 23.9707 121.738 23.7559C122.24 23.9134 122.748 23.9922 123.264 23.9922C124.71 23.9922 125.806 23.4766 126.551 22.4453C127.038 21.7721 127.281 20.9772 127.281 20.0605C127.267 19.1725 127.031 18.4062 126.572 17.7617L128.355 17.8262V16.0859L124.381 16.2363C124.051 16.1361 123.679 16.0859 123.264 16.0859ZM123.221 29.8359C121.86 29.8359 121.087 29.4779 120.9 28.7617C120.872 28.6615 120.857 28.5684 120.857 28.4824C120.872 27.9811 121.173 27.5299 121.76 27.1289H122.061L124.08 27.0859C125.24 27.0716 125.878 27.3867 125.992 28.0312C126.007 28.1029 126.014 28.1673 126.014 28.2246C126.014 28.9121 125.548 29.3919 124.617 29.6641C124.202 29.7786 123.736 29.8359 123.221 29.8359ZM132.287 27V16.2578H130.053V27H132.287ZM132.631 13.1211C132.631 12.3906 132.33 11.9108 131.729 11.6816C131.542 11.6243 131.363 11.5957 131.191 11.5957C130.547 11.5957 130.11 11.8822 129.881 12.4551C129.795 12.6699 129.752 12.8919 129.752 13.1211C129.752 13.8945 130.053 14.3958 130.654 14.625C130.826 14.6823 130.998 14.7109 131.17 14.7109C131.814 14.7109 132.258 14.4245 132.502 13.8516C132.588 13.6224 132.631 13.3789 132.631 13.1211ZM138.969 25.4531C138.424 25.4531 137.902 25.3314 137.4 25.0879V20.834C137.4 19.4303 137.809 18.4922 138.625 18.0195C138.883 17.862 139.169 17.7832 139.484 17.7832C140.272 17.7832 140.859 18.2344 141.246 19.1367C141.475 19.6953 141.59 20.3542 141.59 21.1133C141.59 23.3333 141.038 24.7083 139.936 25.2383C139.635 25.3815 139.312 25.4531 138.969 25.4531ZM137.379 31.3184V27.0645C137.98 27.2077 138.525 27.2793 139.012 27.2793C140.802 27.2793 142.134 26.5059 143.008 24.959C143.595 23.9134 143.889 22.6243 143.889 21.0918C143.889 19.0866 143.316 17.6328 142.17 16.7305C141.54 16.2292 140.824 15.9785 140.021 15.9785C138.89 15.9928 137.98 16.4941 137.293 17.4824L137.229 16.2578H135.166L135.145 31.3184H137.379ZM151.816 26.4629L151.215 25.0879C150.771 25.3314 150.384 25.4531 150.055 25.4531C149.253 25.4245 148.844 24.8444 148.83 23.7129V17.9336H151.193V16.2578H148.83V13.3574H146.596V16.2578H145.113V17.9336H146.596V23.9492C146.596 25.8255 147.276 26.9141 148.637 27.2148C148.88 27.2578 149.124 27.2793 149.367 27.2793C150.155 27.265 150.971 26.9928 151.816 26.4629ZM157.295 25.4531C156.206 25.4531 155.476 24.7943 155.104 23.4766C154.96 22.9323 154.889 22.3164 154.889 21.6289C154.889 19.7812 155.368 18.5924 156.328 18.0625C156.643 17.8906 156.98 17.8047 157.338 17.8047C158.455 17.8047 159.186 18.5065 159.529 19.9102C159.658 20.4258 159.723 21.013 159.723 21.6719C159.723 23.5768 159.221 24.7728 158.219 25.2598C157.932 25.3887 157.624 25.4531 157.295 25.4531ZM157.381 15.9785C155.533 15.9785 154.187 16.752 153.342 18.2988C152.84 19.2441 152.59 20.3685 152.59 21.6719C152.59 24.0495 153.299 25.6966 154.717 26.6133C155.419 27.0573 156.249 27.2793 157.209 27.2793C159.186 27.2793 160.575 26.4486 161.377 24.7871C161.792 23.8991 162 22.8464 162 21.6289C162 19.151 161.262 17.4681 159.787 16.5801C159.1 16.179 158.298 15.9785 157.381 15.9785Z" fill="#58BFE9"/>
<path d="M32.9684 0H4.87205C3.57984 0.000177067 2.34061 0.50241 1.42695 1.39623C0.51328 2.29005 -1.26797e-08 3.50226 0 4.76623V24.4154C0 24.4501 0 24.4848 0 24.5198C0.0250292 28.9426 5.5624 31.089 8.73883 27.9413L19.9719 16.8103L12.4502 12.2802L14.3445 10.4272L23.3682 13.3483L27.0201 9.62571C27.3022 9.32728 27.682 9.13459 28.0939 9.08095C28.5058 9.02731 28.9239 9.11608 29.276 9.33193C29.495 9.47246 29.6788 9.65946 29.8138 9.87904C29.9488 10.0986 30.0314 10.3451 30.0556 10.6002C30.0798 10.8554 30.0449 11.1125 29.9534 11.3526C29.862 11.5927 29.7165 11.8096 29.5276 11.9871L25.6745 15.604L28.6607 24.431L26.7664 26.2838L22.1351 18.9267L12.6771 28.5313C7.37997 33.9104 11.1933 42.9332 18.8283 42.9993H18.9994C24.0384 42.9993 28.871 41.0414 32.4341 37.5562C35.9971 34.0709 37.9989 29.344 37.9989 24.4152V4.92091C37.9989 3.61588 37.4689 2.3643 36.5255 1.44146C35.5821 0.518622 34.3026 0.000118049 32.9684 0Z" fill="url(#paint0_linear)"/>
<g opacity="0.26">
<path opacity="0.26" d="M25.5697 29.3369C25.3394 29.2227 25.0909 29.1438 24.8336 29.1032C24.6716 29.0696 24.5096 29.0365 24.3474 29.0037L22.9411 28.7176C22.7549 28.6797 22.5324 28.6092 22.4968 28.4347C22.494 28.3303 22.5143 28.2266 22.5564 28.1298C22.5819 28.0283 22.558 27.8949 22.4511 27.8634C22.3414 27.5772 22.0084 27.4011 21.7087 27.2788C21.4 27.179 21.0993 27.059 20.8089 26.9196C20.5547 26.7717 20.3506 26.5599 20.2203 26.3086C20.0212 25.9228 19.3303 25.9392 18.8732 25.9819C18.6839 26.0042 18.4969 26.0407 18.3139 26.091L17.2277 26.3597C17.1902 26.3689 17.1515 26.3777 17.1123 26.3861H17.1096C17.1045 26.3873 17.1 26.3875 17.095 26.3888C17.0633 26.3951 17.0318 26.4007 16.9998 26.4055C16.7394 26.4441 16.4726 26.4063 16.2363 26.2973C16.127 26.2527 16.0278 26.1893 15.9438 26.1105C15.8221 25.9838 15.7525 25.8211 15.7474 25.6512C15.7347 25.4854 15.7352 25.319 15.749 25.1533C15.7614 25.0155 15.614 24.9062 15.4678 24.881C15.3197 24.8702 15.1711 24.868 15.0228 24.8745C14.9484 24.8767 14.875 24.8584 14.8116 24.822C14.7483 24.7857 14.6978 24.7328 14.6664 24.6699C14.6475 24.5861 14.6567 24.4988 14.6928 24.4199C14.7643 24.2159 14.7987 23.9536 14.9897 23.8336C15.104 23.7619 15.2394 23.6589 15.2039 23.5347C15.191 23.4996 15.1674 23.4687 15.136 23.4458C15.1046 23.4228 15.0668 23.4089 15.0271 23.4055C14.9472 23.4004 14.8674 23.4173 14.7978 23.4541C14.4268 23.6283 14.2025 24.0578 13.7908 24.1108C13.6161 24.1161 13.4444 24.0671 13.3028 23.9717C13.1612 23.8762 13.0576 23.7397 13.0084 23.5835C12.9179 23.2638 12.8923 22.9311 12.933 22.6026C12.9447 22.4294 13.0137 22.2637 13.1305 22.1284C13.2473 21.9931 13.4062 21.8947 13.5854 21.8467C13.7635 21.8152 13.9442 21.799 14.1254 21.7983C14.3004 21.762 14.4691 21.7033 14.6268 21.6239C14.749 21.5831 14.8798 21.5697 15.0085 21.5847C15.1373 21.5997 15.2605 21.6427 15.3681 21.7101C15.702 21.9229 15.8181 22.3248 16.0493 22.633C16.1121 22.7168 16.2106 22.802 16.3162 22.7748C16.3553 22.7607 16.3887 22.7357 16.4117 22.7031C16.4347 22.6705 16.4463 22.632 16.4446 22.593C16.4446 22.5153 16.4556 22.4125 16.4514 22.3348C16.4323 22.1272 16.4355 21.9184 16.4608 21.7114C16.4867 21.5027 16.5786 21.3059 16.7249 21.146C16.9677 20.8993 17.3949 20.8235 17.4802 20.4983C17.5725 20.2413 17.7622 20.0245 18.0138 19.8883C18.2636 19.7543 18.4988 19.5979 18.7159 19.4213C18.8711 19.2505 18.9975 19.0587 19.0907 18.8525C19.1671 18.7169 19.2765 18.5998 19.4102 18.5107C19.544 18.4216 19.6983 18.3628 19.8608 18.3393C20.0907 18.3079 20.3677 18.3328 20.5103 18.1617C20.5579 18.0899 20.5819 18.0067 20.5794 17.9224C20.5769 17.838 20.548 17.7562 20.4961 17.687C20.3902 17.5506 20.2721 17.4229 20.1429 17.3052C20.0784 17.2467 20.0277 17.1761 19.9943 17.0982C19.9608 17.0203 19.9453 16.9367 19.9488 16.8529C19.9663 16.7712 20.0053 16.6948 20.0622 16.6306C20.1192 16.5663 20.1924 16.5162 20.2752 16.4847C20.4415 16.4232 20.6196 16.3941 20.7985 16.3991C21.12 16.4183 21.4429 16.3925 21.7562 16.3227C21.9123 16.2848 22.0516 16.2019 22.154 16.0859C22.2565 15.9699 22.317 15.8267 22.3267 15.6768C22.3126 15.3952 22.0568 15.1847 21.8404 14.9879C21.7438 14.8995 21.6627 14.7975 21.6001 14.6857C21.5974 14.6813 21.5945 14.6782 21.5918 14.6733C21.5855 14.6622 21.5816 14.6524 21.5758 14.64C21.5699 14.6277 21.5657 14.6191 21.5612 14.6097C21.4592 14.3851 21.428 14.1382 21.4712 13.8977C21.4835 13.8464 21.4815 13.793 21.4655 13.7425C21.4496 13.6921 21.4201 13.6462 21.3798 13.6093C21.2673 13.5371 21.1144 13.6093 21.0129 13.6931C20.9114 13.7769 20.8071 13.8837 20.6707 13.8832C20.5018 13.8832 20.3875 13.7119 20.3724 13.5551C20.3573 13.3982 20.4057 13.241 20.3949 13.0843C20.3776 12.8073 20.1051 12.6372 19.8763 12.4593C19.7972 12.3923 19.6988 12.3482 19.5932 12.3325C19.4876 12.3168 19.3793 12.3302 19.2817 12.3709C19.1543 12.4508 19.0531 12.562 18.9893 12.6921C18.8182 12.9305 18.7052 13.2008 18.6583 13.4841C18.641 13.6904 18.6943 13.8981 18.6718 14.104C18.6587 14.2195 18.6191 14.3311 18.5555 14.4311L18.5542 14.4338C18.4344 14.5915 18.3452 14.7674 18.2905 14.9537C18.2731 15.1427 18.2306 15.329 18.1641 15.5083C18.1431 15.5903 18.0892 15.6618 18.0133 15.708C17.9534 15.7275 17.8879 15.7264 17.8287 15.7048C17.7696 15.6832 17.7207 15.6426 17.691 15.5903C17.6349 15.4839 17.6023 15.3682 17.5951 15.2498C17.5231 14.8406 17.3491 14.4528 17.0871 14.1174C16.8251 13.7821 16.4823 13.5085 16.0862 13.3187C15.7771 13.1746 15.6943 12.7742 15.8196 12.475C15.9717 12.1841 16.2039 11.9361 16.4925 11.7561C17.012 11.3753 17.5594 11.0665 18.0925 10.7023L18.7348 10.2638C18.9428 10.1493 19.1086 9.97879 19.2104 9.77482C19.241 9.65994 19.2635 9.54333 19.2779 9.42574C19.2855 9.36681 19.3071 9.31019 19.341 9.25993C19.3749 9.20967 19.4204 9.16703 19.4741 9.13508C19.6653 9.04398 19.8871 9.18513 20.0365 9.32941C20.2383 9.55287 20.4119 9.79709 20.554 10.0573L20.556 10.0613C20.6 10.1159 20.6311 10.1786 20.6473 10.2452C20.6634 10.3118 20.6643 10.3808 20.6497 10.4477C20.6352 10.5146 20.6055 10.5779 20.5628 10.6334C20.5201 10.6889 20.4653 10.7354 20.4019 10.7697V10.7697L19.6237 11.1649C19.5204 11.2174 19.3987 11.3054 19.4338 11.4105C19.47 11.5217 19.6331 11.5247 19.7569 11.5408C19.8646 11.56 19.9671 11.5991 20.0583 11.6557C20.1495 11.7124 20.2276 11.7854 20.288 11.8706C20.4368 12.0294 20.552 12.2129 20.6275 12.4115C20.6544 12.4917 20.7118 12.56 20.7889 12.6035C20.8661 12.647 20.9577 12.6627 21.0464 12.6477C21.1345 12.6289 21.2155 12.5886 21.2812 12.5309C21.3469 12.4732 21.395 12.4003 21.4203 12.3196C21.4684 12.1565 21.4579 11.9834 21.3904 11.8264C21.3288 11.6689 21.331 11.4683 21.1954 11.3582C21.1774 11.3407 21.1644 11.3194 21.1575 11.2961C21.1506 11.2728 21.1501 11.2483 21.1559 11.2248C21.1618 11.2013 21.1738 11.1795 21.191 11.1614C21.2082 11.1433 21.2299 11.1294 21.2543 11.1211C21.295 11.1155 21.3365 11.12 21.3747 11.1342C21.4129 11.1483 21.4464 11.1716 21.4718 11.2017C21.5276 11.2574 21.5684 11.3259 21.6293 11.3774C21.6851 11.418 21.7509 11.4449 21.8207 11.4556C21.8906 11.4662 21.9621 11.4603 22.0289 11.4384C22.0997 11.4112 22.2332 11.3199 22.151 11.0763L21.8574 10.2464L21.5753 9.44877C21.514 9.23113 21.3715 9.0409 21.1733 8.91206C20.7634 8.67711 20.4236 8.34995 20.1852 7.96071C20.0953 7.78524 19.9855 7.61915 19.8579 7.46524C19.7189 7.32012 19.4385 7.08831 19.2655 7.19615C18.9367 7.4046 18.691 7.70835 18.5668 8.06018C18.5108 8.19362 18.5006 8.33993 18.5375 8.479C18.6035 8.6121 18.6893 8.73589 18.7924 8.84672C18.8328 8.90892 18.8567 8.97918 18.8621 9.05167C18.8676 9.12417 18.8544 9.19684 18.8237 9.26366C18.7856 9.37729 18.7261 9.48367 18.6478 9.57777C18.6079 9.62432 18.5555 9.66026 18.496 9.68196C18.4364 9.70365 18.3717 9.71033 18.3085 9.70132C18.2334 9.67406 18.167 9.62956 18.1153 9.57197C18.0637 9.51438 18.0285 9.44556 18.0131 9.37192C17.9468 9.15422 17.9284 8.92628 17.9591 8.70181L18.0604 7.68722C18.0599 7.58409 18.0923 7.48314 18.1535 7.39718C18.2742 7.30187 18.4259 7.24734 18.5841 7.24243C18.7384 7.21374 18.9146 7.1283 18.918 6.98192C18.9167 6.94055 18.9033 6.90028 18.8792 6.86547C18.8552 6.83067 18.8213 6.80265 18.7814 6.78445C18.7005 6.74919 18.6093 6.74012 18.5222 6.75869C18.391 6.796 18.2691 6.85723 18.1635 6.9388C18.058 7.02037 17.9709 7.12066 17.9074 7.23384C17.6671 7.58063 17.6532 8.0206 17.4487 8.38665C17.3646 8.56984 17.3284 8.76901 17.3432 8.96776C17.358 9.16648 17.3295 9.36594 17.2592 9.55411C17.222 9.64747 17.1542 9.72759 17.0654 9.78316C16.9766 9.83873 16.8713 9.86695 16.7643 9.86382C16.5675 9.84058 16.4289 9.68101 16.2804 9.5585C16.0572 9.37485 15.7389 9.37004 15.4689 9.25277C15.4067 9.2366 15.3413 9.23438 15.278 9.24628C15.2147 9.25818 15.1553 9.28387 15.1047 9.32124C15.0543 9.35882 14.9962 9.38649 14.934 9.40258C14.8718 9.41867 14.8067 9.42285 14.7427 9.41485C14.6331 9.38386 14.5675 9.28355 14.4916 9.20355C14.2878 8.98849 13.945 9.01132 13.6451 8.94535C13.5852 8.93628 13.5281 8.91528 13.4777 8.88378C13.4529 8.86753 13.4343 8.84445 13.4245 8.8178C13.4146 8.79115 13.414 8.76229 13.4228 8.73531C13.4376 8.71157 13.4582 8.6914 13.4829 8.67645C13.5077 8.6615 13.5359 8.65218 13.5652 8.64925C13.6239 8.64372 13.6804 8.62504 13.7297 8.5948C13.7532 8.57102 13.7684 8.54119 13.7735 8.50921C13.7785 8.47723 13.773 8.44459 13.7578 8.41555C13.6249 8.24394 13.4566 8.09866 13.2628 7.98814V7.98814C13.1724 7.9407 13.0848 7.88869 13.0005 7.83234L12.9971 7.82962C12.9936 7.82704 12.9903 7.82424 12.9872 7.82124H12.9857C12.9179 7.77543 12.8395 7.74509 12.7569 7.73266C12.6386 7.72416 12.5256 7.68361 12.4318 7.61602C12.3657 7.52603 12.3124 7.42847 12.2732 7.32577C12.2266 7.25904 12.1649 7.20257 12.0924 7.16033C12.02 7.11808 11.9385 7.09107 11.8536 7.08118C11.6837 7.0381 11.5058 7.03038 11.3323 7.05857C11.0843 7.13286 10.8312 7.19203 10.5749 7.23573C10.4648 7.25714 10.3512 7.25849 10.2406 7.23971C10.1312 7.21625 10.0471 7.09312 9.95934 7.02758C9.35664 6.58153 8.69027 6.15015 8.2968 5.53406C8.15321 5.3115 7.92642 5.1461 7.6599 5.06959C7.39601 4.99504 7.05135 4.94834 6.8293 5.101L6.15439 5.56506C6.05869 5.641 5.94694 5.69743 5.82638 5.7307C5.69139 5.75834 5.53639 5.7307 5.42345 5.80441C5.38699 5.83145 5.35722 5.86547 5.33614 5.90417C5.31506 5.94287 5.30317 5.98534 5.30129 6.02869C5.28175 6.117 5.28275 6.20818 5.30421 6.29611C5.4167 6.57148 5.51704 6.94109 5.37868 7.2062C5.34305 7.25586 5.29087 7.29323 5.23018 7.31257C5.16949 7.33191 5.10364 7.33213 5.0428 7.31321C4.91839 7.28515 4.8086 7.21667 4.68689 7.18002C4.59103 7.1518 4.48971 7.14341 4.39 7.15541C4.29029 7.16742 4.1946 7.19955 4.10961 7.24955C3.96711 7.36487 3.87419 7.52425 3.84797 7.69832C3.8279 7.7616 3.83174 7.82937 3.85884 7.89034C3.88594 7.9513 3.93467 8.00179 3.9969 8.03337C4.21243 8.13556 4.51029 7.94961 4.74291 8.01243C4.80658 7.98898 4.87789 8.05075 4.88082 8.11462C4.87761 8.17908 4.84864 8.2401 4.7996 8.28571C4.54506 8.52648 4.23827 8.71396 3.89971 8.83562C3.57395 8.98221 3.20793 9.14471 3.07384 9.45736C3.03135 9.55869 3.01325 9.66746 3.02083 9.77601C3.02841 9.88456 3.06148 9.99023 3.11771 10.0856C3.15731 10.1516 3.2077 10.2112 3.24055 10.2812C3.27339 10.3511 3.32334 10.459 3.26822 10.5147C3.23639 10.5479 3.21463 10.5885 3.20518 10.6322C3.19573 10.6759 3.19893 10.7211 3.21445 10.7632C3.23377 10.8023 3.26497 10.8352 3.3042 10.8579C3.34344 10.8806 3.38896 10.8921 3.43515 10.891C3.5188 10.8916 3.60171 10.9058 3.68014 10.9329C3.71924 10.9469 3.75379 10.9702 3.78047 11.0003C3.80714 11.0304 3.82504 11.0664 3.83245 11.1048C3.84505 11.2154 3.74246 11.305 3.64977 11.3747L3.10354 11.785C3.05112 11.8245 2.9933 11.875 3.00005 11.9374C3.00629 11.9661 3.02272 11.9921 3.04671 12.0111C3.07071 12.0301 3.10086 12.041 3.13233 12.0421C3.19504 12.0427 3.25706 12.0299 3.31366 12.0048C3.57304 11.8883 3.84236 11.792 4.11884 11.7169C4.23244 11.6841 4.33607 11.6267 4.42121 11.5493C4.50635 11.472 4.57057 11.377 4.6086 11.2721C4.70196 11.069 4.74674 10.8472 4.85607 10.6514C4.96433 10.4601 5.13015 10.3023 5.33324 10.1974C5.37065 10.1738 5.4128 10.1573 5.45716 10.1491C5.50153 10.1409 5.54722 10.1411 5.59151 10.1497C5.61133 10.1565 5.62931 10.1673 5.64421 10.1813C5.65912 10.1953 5.67059 10.2121 5.67784 10.2306C5.68509 10.2491 5.68795 10.2688 5.68621 10.2884C5.68447 10.308 5.67818 10.3271 5.66777 10.3442C5.60284 10.4409 5.51722 10.5241 5.41625 10.5886C5.31484 10.6538 5.24046 10.7494 5.20545 10.8594C5.18296 10.971 5.23897 11.0499 5.36113 11.0478C5.4529 11.0486 5.54368 11.0302 5.62678 10.994C5.70987 10.9577 5.78316 10.9046 5.84123 10.8384C5.96134 10.7005 6.13158 10.6084 6.31974 10.5794C6.84595 10.5794 7.2716 11.0748 7.62278 11.4396C7.90438 11.707 8.13966 12.0135 8.32019 12.3481C8.63268 12.9538 8.70903 13.6419 8.53617 14.2943C8.48254 14.4749 8.4827 14.6656 8.53664 14.846C8.59057 15.0265 8.69626 15.1899 8.84235 15.3187C8.95725 15.3921 9.05129 15.4903 9.11637 15.605C9.14669 15.7347 9.1281 15.8701 9.06373 15.9884C8.78836 16.6747 8.39713 17.305 8.30309 18.0323C8.21603 18.7064 8.20636 19.4755 8.6707 19.9993C9.18499 20.5793 9.33909 21.2976 9.57509 22.0163C9.68612 22.354 9.84928 22.6749 10.0595 22.9689C10.1245 23.0598 10.2102 23.1574 10.3274 23.1616C10.3638 23.1622 10.3997 23.1538 10.4314 23.137C10.4631 23.1203 10.4893 23.0959 10.5074 23.0665C10.5316 22.9954 10.534 22.9194 10.5146 22.847C10.4783 22.6838 10.4019 22.5305 10.2914 22.3993C10.0788 22.098 9.76632 21.7529 9.74382 21.3931L9.72132 21.0509C9.71675 21.0164 9.71973 20.9815 9.73009 20.9481C9.7357 20.9315 9.74657 20.9169 9.76127 20.9063C9.77598 20.8956 9.79381 20.8893 9.81243 20.8882C9.84978 20.8882 9.93437 20.9401 9.9157 20.9701C9.93977 21.4052 10.2352 21.7809 10.5186 22.1277C10.6838 22.3294 10.9546 22.5497 11.021 22.7955C11.1284 23.2484 11.3298 23.6774 11.6138 24.0585C11.8975 24.4432 12.3189 24.7216 12.8028 24.844C13.2286 24.9342 13.6986 25.0435 14.1301 25.1095C14.3479 25.1448 14.5528 25.2301 14.7264 25.3576C14.8999 25.4851 15.0367 25.6507 15.1243 25.8397C15.2307 26.0753 15.264 26.3523 15.4583 26.5331C15.6703 26.7303 16.0322 26.7144 16.3306 26.7425C16.4281 26.7518 16.5222 26.7815 16.6057 26.8293C16.6892 26.8772 16.7601 26.9419 16.8131 27.0188C16.866 27.0956 16.8997 27.1826 16.9115 27.2732C16.9234 27.3638 16.9131 27.4558 16.8815 27.5422C16.801 27.7045 16.6985 27.8566 16.5765 27.9947C16.3252 28.3478 16.3976 28.7832 16.3198 29.2005C16.1976 29.8564 16.5897 30.4899 16.9675 31.0555C17.27 31.5091 17.4399 32.0586 17.8921 32.3863C18.421 32.8092 18.7537 33.4061 18.8205 34.0521C18.913 34.6879 19.068 35.4342 18.8059 36.0271C18.4995 36.7234 18.1882 37.486 18.4109 38.2093C18.5272 38.5863 18.7814 38.9178 18.8991 39.2949C18.9706 39.6028 19.0192 39.9148 19.0446 40.2289C19.071 40.5457 19.214 40.8443 19.4496 41.0743C19.7173 41.2996 19.8961 41.6141 20.1729 41.83C20.2685 41.9172 20.3901 41.9756 20.5218 41.9976C20.5877 42.0062 20.6546 41.9917 20.7096 41.9568C20.7646 41.922 20.8037 41.8693 20.8192 41.8091C20.8209 41.7425 20.8035 41.6767 20.7686 41.6185L20.2847 40.6184C20.2608 40.5561 20.2531 40.4895 20.2624 40.424C20.2716 40.3584 20.2974 40.2959 20.3378 40.2415C20.408 40.1158 20.5177 40.0134 20.6001 39.8936C20.646 39.8369 20.6765 39.7706 20.6888 39.7005C20.7012 39.6304 20.695 39.5586 20.6709 39.4911C20.6086 39.3617 20.446 39.2865 20.4041 39.1502C20.3928 39.0921 20.3967 39.0324 20.4155 38.976C20.4342 38.9196 20.4673 38.8682 20.5119 38.8263C20.5936 38.7364 20.697 38.6644 20.7722 38.5697C20.8601 38.4518 20.9013 38.3091 20.8887 38.1661C20.8761 38.023 20.8105 37.8885 20.7031 37.7855C20.6888 37.681 20.7021 37.5749 20.742 37.4763C20.7819 37.3778 20.8471 37.2898 20.9319 37.2201C21.095 37.0853 21.2783 36.9734 21.4761 36.888C21.6743 36.8022 21.8493 36.6759 21.9879 36.5186C21.9768 36.4175 21.9922 36.3153 22.0328 36.221C22.0734 36.1266 22.138 36.0428 22.221 35.9768C22.3897 35.8409 22.5906 35.7417 22.7524 35.5984C23.1956 35.2058 23.2586 34.5786 23.5198 34.0634C23.7743 33.5669 24.2158 33.1746 24.7605 32.9609C25.0047 32.5798 25.1391 32.1464 25.1506 31.7028C25.1443 31.4927 25.1576 31.2825 25.1902 31.0745C25.2078 30.9704 25.2539 30.8723 25.3242 30.7896C25.3945 30.707 25.4865 30.6426 25.5913 30.6027C25.8401 30.5311 26.0201 30.1519 25.9976 29.9102C25.9786 29.7904 25.9301 29.6763 25.8559 29.5768C25.7817 29.4774 25.6837 29.3952 25.5697 29.3369V29.3369Z" fill="#56BEE3"/>
<path opacity="0.26" d="M2.58022 7.08431C2.51679 7.15351 2.46998 7.23572 2.44323 7.32491C2.41648 7.4141 2.41046 7.50801 2.42563 7.59977C2.44079 7.69152 2.47674 7.7788 2.53085 7.85521C2.58497 7.93161 2.65587 7.99521 2.73836 8.04134C2.80535 8.07068 2.86865 8.10749 2.92699 8.15107C2.9555 8.1737 2.97547 8.205 2.98371 8.24C2.99196 8.27501 2.98801 8.31169 2.9725 8.34425C2.9254 8.4177 2.81322 8.41102 2.73039 8.38009C2.6536 8.33577 2.56532 8.3142 2.47624 8.31799C2.43031 8.33225 2.39004 8.36009 2.36099 8.39768C2.33193 8.43528 2.31551 8.48076 2.314 8.52787C2.31298 8.62219 2.33244 8.71565 2.37111 8.80207C2.43414 8.975 2.5181 9.1693 2.69627 9.22761C2.95225 9.31152 3.21801 9.05668 3.48286 9.10854C3.61302 9.14703 3.72764 9.22429 3.81075 9.32955C3.89339 9.43446 3.99999 9.51899 4.12202 9.57637C4.18392 9.60277 4.2537 9.6054 4.31749 9.58375C4.38128 9.5621 4.43441 9.51775 4.46629 9.45952C4.50906 9.34824 4.43693 9.22361 4.45377 9.10542C4.47652 8.95096 4.63444 8.85927 4.74957 8.75199C5.06448 8.46021 5.09338 7.98726 5.10112 7.56305C5.10765 7.4818 5.09909 7.40006 5.07586 7.32179C5.06371 7.28285 5.04118 7.24777 5.01059 7.22016C4.98 7.19254 4.94245 7.17339 4.90179 7.16466C4.75139 7.14374 4.65287 7.30465 4.55775 7.42038C4.47857 7.51698 4.28266 7.70282 4.14227 7.65697C3.99232 7.60778 3.8112 7.34004 3.69994 7.23076C3.58464 7.10078 3.4431 6.99552 3.28422 6.92162C3.16355 6.8778 3.03233 6.86987 2.90707 6.89882C2.7818 6.92777 2.66808 6.9923 2.58022 7.08431V7.08431Z" fill="#56BEE3"/>
<path opacity="0.26" d="M1.78262 7.33129C1.82561 7.3324 1.86826 7.32373 1.90724 7.30597C1.94621 7.2882 1.98043 7.26182 2.0072 7.22891C2.06021 7.16294 2.10697 7.09239 2.14691 7.01814C2.28559 6.79762 2.49021 6.62413 2.73305 6.52115C2.93607 6.47019 3.1248 6.37526 3.28529 6.24339C3.35908 6.15312 3.39517 6.03886 3.3863 5.92361C3.37744 5.80836 3.32427 5.70066 3.2375 5.62221C2.95058 5.38162 2.51803 5.6251 2.28002 5.8194C1.95684 6.08301 1.72093 6.43452 1.60218 6.8294C1.56719 6.92568 1.55803 7.02913 1.57556 7.12987C1.58532 7.17993 1.61032 7.22594 1.64726 7.26188C1.68421 7.29782 1.73139 7.32201 1.78262 7.33129V7.33129Z" fill="#56BEE3"/>
<path opacity="0.26" d="M4.53433 25.0232C4.46197 25.0232 4.36618 25.047 4.36572 25.1178C4.36572 25.1699 4.42079 25.2032 4.4688 25.2259L4.95573 25.4567C5.1846 25.572 5.42171 25.6708 5.66519 25.7525C5.74681 25.7854 5.83674 25.7932 5.92299 25.7748C6.3428 25.6453 5.62833 25.2898 5.50933 25.2366C5.20326 25.0993 4.87105 25.0266 4.53433 25.0232V25.0232Z" fill="#56BEE3"/>
<path opacity="0.26" d="M6.68758 25.8819C6.59793 25.8804 6.49145 25.8873 6.44457 25.9618C6.42849 25.993 6.42281 26.0283 6.42832 26.0628C6.43383 26.0973 6.45025 26.1293 6.47529 26.1541C6.52673 26.203 6.59126 26.2365 6.66142 26.251C6.80112 26.2878 6.94719 26.2954 7.0901 26.2732C7.23367 26.251 7.42936 26.1272 7.29079 25.9788C7.16086 25.8394 6.85551 25.8851 6.68758 25.8819Z" fill="#56BEE3"/>
<path opacity="0.26" d="M20.3484 11.2287C20.4293 11.1213 20.4817 10.996 20.501 10.8639C20.5204 10.7319 20.506 10.5972 20.4592 10.472C20.3479 10.2196 20.0614 9.98231 20.1773 9.73126C20.2612 9.54964 20.501 9.51381 20.6915 9.44192C20.9096 9.35357 21.0902 9.19477 21.2031 8.992C21.3161 8.78922 21.3546 8.55471 21.3122 8.32754C21.2143 7.81172 21.2415 7.28063 21.3917 6.77698C21.5419 6.27333 21.8108 5.8112 22.1769 5.42774C22.2769 5.33581 22.362 5.22945 22.4292 5.11236C22.4617 5.05327 22.4765 4.9864 22.4718 4.91946C22.4671 4.85252 22.4432 4.78823 22.4028 4.734C22.3449 4.68444 22.2744 4.65117 22.1987 4.63772C22.123 4.62428 22.045 4.63117 21.973 4.65766C21.83 4.7122 21.6811 4.7508 21.5293 4.77273C21.3757 4.77785 21.2007 4.6837 21.1948 4.53303C21.1889 4.38235 21.3459 4.28019 21.4654 4.18226C21.5848 4.08434 21.6756 3.88714 21.5514 3.79522C21.2471 3.55774 20.8889 3.39534 20.507 3.32174C20.125 3.24814 19.7306 3.2655 19.357 3.37235C18.8949 3.52414 18.4625 3.82393 17.9756 3.80412C17.7062 3.793 17.4507 3.68327 17.1829 3.65234C17.0508 3.62471 16.9131 3.63823 16.7893 3.691C16.6654 3.74376 16.5616 3.83314 16.4923 3.94657C15.9596 4.298 15.4119 4.78675 14.8793 5.13818C14.53 5.36831 14.1555 5.63228 14.0472 6.03022C14.0092 6.17642 14.0104 6.32971 14.0505 6.47534C14.0907 6.62097 14.1685 6.75404 14.2765 6.86172C14.4374 6.99319 14.6105 7.10972 14.7935 7.20981C14.8848 7.26055 14.964 7.32985 15.0256 7.41305C15.0872 7.49625 15.1299 7.59141 15.1507 7.69211C15.2058 8.21804 15.4511 8.72237 15.5375 9.24406C15.6063 9.60916 15.6221 9.98191 15.5844 10.3513C15.5152 10.8978 15.2792 11.4112 14.907 11.8245C14.777 11.9995 14.6886 12.2008 14.6483 12.4136C14.5874 12.6124 14.6054 12.8264 14.6988 13.0128C14.7951 13.1841 14.976 13.3132 15.0174 13.5048C15.0289 13.5955 15.0295 13.6872 15.019 13.7779C15.0084 13.8695 15.0327 13.9617 15.0872 14.0368C15.1436 14.0711 15.2073 14.0922 15.2734 14.0987C15.3395 14.1051 15.4062 14.0967 15.4684 14.0739C15.6481 13.9742 15.8563 14.1461 15.9808 14.3076C16.1052 14.4692 16.2811 14.6591 16.4782 14.597C16.6675 14.5375 16.7046 14.2992 16.7448 14.1087C16.8791 13.4719 17.3961 12.9736 17.9626 12.6335C18.5292 12.2934 19.1622 12.0711 19.7342 11.7397C19.9747 11.6153 20.1843 11.4408 20.3484 11.2287V11.2287Z" fill="#56BEE3"/>
<path opacity="0.26" d="M18.6073 15.3886C18.7131 15.2798 18.7599 15.1463 18.8862 15.0472C19.0209 14.9413 19.2432 14.8828 19.3274 14.7265C19.3497 14.6814 19.3595 14.6314 19.3558 14.5814C19.3521 14.5315 19.335 14.4833 19.3063 14.4419C19.2767 14.4009 19.239 14.3663 19.1954 14.3401C19.1518 14.3138 19.1032 14.2965 19.0526 14.2892C18.7363 14.2387 18.4368 14.5271 18.1219 14.469C17.9504 14.4374 17.7779 14.3056 17.62 14.3786C17.5599 14.4156 17.5156 14.4726 17.4953 14.539C17.4749 14.6055 17.4798 14.6769 17.5092 14.7401C17.5723 14.8645 17.6662 14.9716 17.7822 15.0517C17.9777 15.2119 18.3511 15.6522 18.6073 15.3886Z" fill="#56BEE3"/>
<path opacity="0.26" d="M38.2917 6.90401C38.2478 6.85038 38.1918 6.8072 38.1491 6.75267C38.0638 6.62091 38.0223 6.46662 38.0301 6.31088C38.0382 6.15579 38.0143 6.00069 37.9598 5.85484C37.9304 5.78278 37.8765 5.72283 37.8072 5.68512C37.7379 5.64741 37.6574 5.63425 37.5793 5.64786C37.3424 5.72171 37.0883 5.72442 36.8498 5.65564C36.499 5.5388 36.2933 5.16355 35.947 5.03424C35.634 4.93667 35.3139 4.86227 34.9895 4.81168C34.641 4.70909 34.2729 4.68692 33.9141 4.74691C33.7359 4.78161 33.5748 4.87419 33.457 5.00965C33.3393 5.1451 33.2718 5.31548 33.2654 5.49317C33.2695 5.54681 33.2179 5.59689 33.1714 5.62671C33.1231 5.65264 33.0708 5.67061 33.0165 5.67991L32.3013 5.84171C32.2017 5.86881 32.0987 5.8828 31.9953 5.88333C31.9436 5.88336 31.8923 5.87339 31.8445 5.85399C31.7967 5.83458 31.7533 5.80613 31.7168 5.77027C31.5124 5.60036 31.2947 5.44632 31.0658 5.30956C31.0169 5.26067 30.9507 5.23199 30.8808 5.22943C30.8257 5.2418 30.775 5.26866 30.7343 5.30711C30.5243 5.46177 30.2607 5.52969 30 5.49629C29.4426 5.41159 28.8926 5.28509 28.3549 5.11793C28.134 5.05425 27.8979 5.06206 27.6819 5.14018C27.6375 5.1515 27.5992 5.17876 27.5745 5.21653C27.5656 5.24793 27.5648 5.281 27.5722 5.31277C27.5796 5.34454 27.5949 5.37403 27.6168 5.39858C27.7 5.53518 27.7751 5.67638 27.8416 5.82146C27.8525 5.85124 27.8542 5.88348 27.8467 5.91423C27.8391 5.94499 27.8226 5.97292 27.799 5.99461C27.7511 6.0371 27.695 6.06986 27.6341 6.09098L26.7949 6.44353C26.6523 6.51998 26.4899 6.55394 26.3278 6.54123C26.1963 6.51148 26.0803 6.43613 26.0013 6.32913C25.9135 6.22658 25.838 6.11458 25.7762 5.99528C25.7532 5.95229 25.7215 5.91433 25.683 5.88372C25.6445 5.85311 25.6001 5.83049 25.5523 5.81723C25.4566 5.7912 25.3577 5.77809 25.2584 5.77828C25.0974 5.78502 24.9366 5.76238 24.7842 5.71151C24.7535 5.70288 24.7207 5.70596 24.6923 5.72014C24.6639 5.73431 24.6421 5.75852 24.6313 5.78785C24.6118 5.84733 24.5993 5.90878 24.5939 5.97102C24.573 6.05459 24.5306 6.13159 24.471 6.1948C24.4113 6.25802 24.3361 6.30538 24.2526 6.33246C24.0841 6.38477 23.9031 6.38477 23.7345 6.33246C23.5569 6.29748 23.3841 6.2422 23.2196 6.16777C23.1161 6.11466 22.9962 6.10073 22.8829 6.12866C22.7695 6.15658 22.6707 6.22438 22.6053 6.31911C22.537 6.42683 22.494 6.57951 22.3663 6.60199C22.2387 6.62447 22.1338 6.47513 22.145 6.34649C22.172 6.21974 22.2229 6.09901 22.2949 5.99039C22.5049 5.56929 22.2521 5.10012 22.0114 4.69528C21.989 4.66173 21.9597 4.63314 21.9253 4.61136C21.8909 4.58957 21.8523 4.57506 21.8118 4.56877C21.7714 4.56248 21.73 4.56455 21.6905 4.57484C21.6509 4.58513 21.6139 4.60341 21.582 4.62851C21.5138 4.68749 21.4755 4.77852 21.3941 4.81658C21.3482 4.83319 21.2983 4.83583 21.2509 4.82415C21.2035 4.81247 21.1609 4.78702 21.1285 4.75114C21.0725 4.67188 21.0257 4.58679 20.9888 4.49742C20.9029 4.33435 20.781 4.19203 20.6318 4.08078C20.556 4.0269 20.4644 3.99857 20.3707 4.00006C20.277 4.00154 20.1863 4.03276 20.1124 4.08901C20.0616 4.14297 20.0269 4.20952 20.0122 4.28142C19.9974 4.35332 20.0031 4.4278 20.0286 4.49675C20.0765 4.64315 20.1805 4.76575 20.3187 4.83883C20.3737 4.87126 20.4153 4.92162 20.4361 4.98105C20.4569 5.04047 20.4556 5.10518 20.4325 5.16378C20.3814 5.28029 20.2857 5.37258 20.1658 5.42084C20.0469 5.46798 19.9253 5.50855 19.8018 5.54236C19.4816 5.64986 19.2964 5.95388 18.999 6.11168C18.9478 6.13892 18.9033 6.17674 18.8686 6.22252C18.8338 6.26831 18.8097 6.32095 18.7979 6.37677C18.7861 6.4326 18.7869 6.49027 18.8002 6.54578C18.8135 6.60128 18.839 6.65327 18.875 6.69814C18.931 6.7678 19.0095 6.81721 19.0675 6.88554C19.0995 6.91714 19.1206 6.95766 19.128 7.00151C19.1354 7.04536 19.1288 7.09038 19.1089 7.13036C19.0885 7.15625 19.0615 7.17647 19.0306 7.189C18.9997 7.20153 18.966 7.20595 18.9328 7.2018C18.8664 7.19646 18.8004 7.16152 18.7337 7.15863C18.6816 7.15944 18.631 7.17536 18.5882 7.20436C18.5453 7.23337 18.5123 7.27415 18.4932 7.32154C18.4568 7.4179 18.4575 7.52391 18.4952 7.61978C18.5317 7.7049 18.5817 7.78384 18.6434 7.8537C18.6997 7.92169 18.7425 7.99946 18.7694 8.08294C18.7822 8.12484 18.783 8.16939 18.7716 8.21168C18.7602 8.25398 18.7371 8.29237 18.7048 8.32264C18.6628 8.34947 18.614 8.3642 18.5638 8.36515C18.5137 8.36609 18.4643 8.35321 18.4213 8.32798C18.3316 8.28347 18.2579 8.21514 18.171 8.16507C18.0841 8.11499 17.9662 8.04488 17.8993 8.11677C17.8355 8.20065 17.7952 8.29944 17.7826 8.40328C17.77 8.50713 17.7854 8.61239 17.8274 8.70857C17.8957 8.90599 18.0176 9.0827 18.0873 9.2799C18.1569 9.47709 18.2026 9.74862 18.0374 9.88082C17.9677 9.92418 17.8845 9.94187 17.8027 9.93074C17.7209 9.91961 17.6457 9.88038 17.5908 9.82006C17.4847 9.69564 17.4113 9.54771 17.3771 9.38917L17.1478 8.63245C17.1251 8.53957 17.0867 8.45109 17.034 8.37072C17.0073 8.33079 16.9709 8.29795 16.928 8.27512C16.8852 8.25228 16.8373 8.24017 16.7885 8.23985C16.616 8.25031 16.5232 8.44772 16.5154 8.61643C16.4927 9.10963 16.935 9.57079 16.8426 10.0562C16.8275 10.1049 16.795 10.1467 16.751 10.174C16.7071 10.2012 16.6545 10.2121 16.603 10.2047C16.4999 10.1864 16.4047 10.1382 16.33 10.0662C16.2561 9.99458 16.1723 9.93344 16.0811 9.8846C16.035 9.8608 15.9829 9.8504 15.931 9.85462C15.879 9.85884 15.8294 9.87751 15.788 9.90842C15.6904 9.99588 15.7504 10.1225 15.7484 10.2518C15.7406 10.3035 15.7175 10.3517 15.6819 10.3906C15.6464 10.4296 15.6 10.4574 15.5484 10.4708C15.4453 10.4962 15.3441 10.5287 15.2455 10.5679C15.1626 10.6293 15.076 10.686 14.9864 10.7377C14.8539 10.7893 14.6339 10.7442 14.6303 10.6042C14.6272 10.5517 14.6047 10.5022 14.567 10.4648C14.5293 10.4275 14.479 10.4048 14.4255 10.401C14.3596 10.408 14.2967 10.4317 14.243 10.4698C14.1893 10.5079 14.1467 10.5591 14.1195 10.6182C14.0512 10.7295 13.9998 10.8752 13.8842 10.9382C13.8644 10.9762 13.8333 11.0074 13.7951 11.0278C13.7568 11.0482 13.7132 11.0568 13.6698 11.0526C13.5829 11.0513 13.499 11.0226 13.4123 11.0166C13.3733 11.0118 13.3337 11.0153 13.2963 11.0268C13.2588 11.0383 13.2243 11.0576 13.1952 11.0833C13.1668 11.1185 13.151 11.1619 13.1504 11.2067C13.1497 11.2515 13.1641 11.2953 13.1913 11.3313C13.2155 11.3909 13.2299 11.4538 13.2339 11.5178C13.2356 11.5498 13.2296 11.5818 13.2164 11.6112C13.2032 11.6405 13.1832 11.6665 13.1579 11.6869C13.1064 11.7128 13.0491 11.7255 12.9913 11.7238C12.9335 11.7221 12.8771 11.7061 12.8273 11.6774C12.7577 11.6574 12.683 11.6635 12.6176 11.6942C12.5523 11.725 12.5009 11.7784 12.4734 11.8441C12.4233 11.977 12.3828 12.1133 12.3524 12.2518C12.3069 12.3853 12.1965 12.5207 12.0516 12.5189C11.9021 12.5178 11.7977 12.3789 11.7187 12.2547L11.4381 11.8138C11.4005 11.7654 11.3777 11.7075 11.3724 11.6469C11.3788 11.5974 11.4019 11.5515 11.4378 11.5161C11.4738 11.4808 11.5207 11.4582 11.5713 11.4517C11.6725 11.4413 11.7749 11.4485 11.8737 11.4728C11.973 11.497 12.0777 11.4887 12.1717 11.4492C12.2445 11.3988 12.2954 11.3237 12.3144 11.2385C12.3334 11.1533 12.3192 11.0642 12.2746 10.9887C12.2458 10.9123 12.1991 10.8436 12.1382 10.7881C12.0773 10.7327 12.0039 10.692 11.9239 10.6694C11.4711 10.5772 10.9813 10.4642 10.6895 10.113C10.6049 9.97695 10.4966 9.85644 10.3696 9.75685C10.2986 9.72088 10.2205 9.70027 10.1406 9.69643C10.0607 9.69259 9.98088 9.70561 9.90659 9.7346C9.75618 9.78623 9.64401 9.91932 9.49406 9.97274C8.84672 10.2026 8.40051 10.7243 7.99231 11.2665C7.8069 11.5737 7.66788 11.9055 7.57956 12.2516C7.46923 12.6067 7.2268 12.9085 6.90013 13.0973C6.83892 13.1224 6.78216 13.1568 6.73197 13.1993C6.70701 13.2207 6.6875 13.2475 6.67498 13.2776C6.66246 13.3077 6.65728 13.3402 6.65985 13.3726C6.68067 13.4342 6.70717 13.4938 6.73903 13.5507C6.75533 13.615 6.75643 13.6822 6.74222 13.747C6.72419 13.9131 6.71515 14.08 6.71514 14.2471C6.70982 14.3349 6.73859 14.4213 6.79568 14.4893C6.82471 14.5224 6.86283 14.5467 6.90552 14.5593C6.94822 14.5719 6.99372 14.5723 7.03665 14.5605C7.17067 14.516 7.22232 14.3448 7.35293 14.2914C7.42369 14.2726 7.4991 14.281 7.56373 14.3149C7.62836 14.3487 7.67732 14.4054 7.7006 14.4734C7.7543 14.607 7.70743 14.757 7.74611 14.8963L7.84441 15.2571C7.86989 15.351 7.90585 15.4574 7.99754 15.4944C8.04308 15.5053 8.09046 15.5066 8.13655 15.4982C8.18265 15.4899 8.2264 15.472 8.2649 15.4458C8.39636 15.39 8.51651 15.3115 8.61963 15.2141C8.67048 15.1623 8.70984 15.1008 8.73525 15.0334C8.76066 14.966 8.77158 14.8941 8.7673 14.8224C8.67947 14.0739 8.43578 13.1754 8.91474 12.5863C9.01462 12.4635 9.12247 12.3471 9.23762 12.2378C9.3145 12.1594 9.40359 12.0933 9.50157 12.0421C9.60092 11.991 9.71671 11.9797 9.82445 12.0105C9.87748 12.027 9.9242 12.0587 9.9585 12.1016C9.9928 12.1444 10.0131 12.1964 10.0167 12.2507C10.0047 12.3528 9.95734 12.4479 9.88247 12.52C9.78473 12.6589 9.67953 12.7926 9.56733 12.9206C9.48808 13.0019 9.43824 13.1064 9.42542 13.2181C9.4126 13.3297 9.4375 13.4424 9.49633 13.5389C9.56829 13.6243 9.66233 13.6892 9.76865 13.727C9.87498 13.7648 9.98971 13.774 10.1009 13.7537C10.3191 13.7384 10.5385 13.7574 10.7505 13.81C10.8222 13.8278 10.9066 13.8652 10.9098 13.9375C10.913 14.0098 10.8338 14.057 10.7621 14.0737C10.6027 14.0847 10.4448 14.1111 10.2907 14.1525C10.1965 14.1994 10.1228 14.2781 10.0835 14.374C10.0441 14.47 10.0418 14.5767 10.0768 14.6742C10.1223 14.7744 10.0156 14.8807 9.90886 14.9126C9.79832 14.927 9.69049 14.957 9.58871 15.0016C9.4192 15.1129 9.43763 15.3577 9.36595 15.5433C9.30778 15.6655 9.21681 15.77 9.10274 15.8457C8.98866 15.9213 8.85575 15.9653 8.71816 15.9729C8.43982 15.9954 8.1596 15.9729 7.88878 15.9061C7.78201 15.8798 7.68526 15.824 7.61014 15.7453C7.53503 15.6666 7.48474 15.5683 7.46533 15.4623C7.46086 15.409 7.45126 15.3563 7.43666 15.3047C7.42895 15.279 7.41399 15.256 7.39351 15.2382C7.37302 15.2205 7.34784 15.2087 7.32085 15.2044C7.28691 15.2063 7.25489 15.2204 7.23089 15.244C7.2069 15.2675 7.19258 15.2989 7.19069 15.3321C7.18912 15.3986 7.20478 15.4645 7.2362 15.5235C7.28587 15.6115 7.31253 15.7101 7.31379 15.8106C7.30753 15.8675 7.28867 15.9223 7.25853 15.9713C7.22839 16.0203 7.18769 16.0623 7.13927 16.0944C7.04211 16.1578 6.93876 16.2116 6.83072 16.2551C6.4044 16.4215 6.05617 16.7364 5.85322 17.1391C5.81296 17.2066 5.75883 17.2652 5.69425 17.3111C5.62967 17.3571 5.55604 17.3895 5.47802 17.4062L4.98744 17.5818C4.84341 17.6332 4.67844 17.7075 4.64841 17.8544C4.6449 17.9224 4.65976 17.99 4.69147 18.0506C4.72319 18.1112 4.77064 18.1625 4.82907 18.1994C4.94689 18.2721 5.04576 18.3706 5.11782 18.4872C5.13973 18.5379 5.14849 18.5931 5.14333 18.6478C5.13817 18.7026 5.11924 18.7553 5.08824 18.8012C5.05544 18.8459 5.01219 18.8822 4.96212 18.9071C4.91204 18.932 4.85659 18.9449 4.8004 18.9446C4.57697 18.9314 4.35318 18.9635 4.14304 19.0389C4.01719 19.109 3.90884 19.2056 3.82584 19.3217C3.74284 19.4378 3.68728 19.5705 3.66317 19.7102C3.61158 19.8841 3.61362 20.0691 3.66905 20.2419C3.72448 20.4148 3.83083 20.5677 3.97476 20.6817C4.11869 20.7957 4.29381 20.8655 4.47817 20.8825C4.66252 20.8996 4.84792 20.863 5.01111 20.7774C5.62842 20.4533 5.73058 19.5637 6.33401 19.2152C6.66024 19.0653 7.02231 19.0059 7.38069 19.0436C7.9823 19.0534 8.3632 19.7531 8.52498 20.3202C8.55319 20.4186 8.58459 20.5332 8.68038 20.5742C8.71932 20.5873 8.76123 20.5896 8.80141 20.5807C8.8416 20.5719 8.87847 20.5523 8.90792 20.5241C8.96587 20.4663 9.01218 20.3983 9.04444 20.3238C9.11826 20.2124 9.15116 20.0798 9.13773 19.9477C9.09587 19.7636 8.89359 19.6701 8.72817 19.5744C8.50688 19.4469 8.31615 19.2744 8.16888 19.0685C8.13595 19.0342 8.11301 18.9918 8.10245 18.9459C8.09188 18.8999 8.09408 18.8521 8.10881 18.8072C8.13207 18.7731 8.16596 18.7471 8.20547 18.7333C8.24497 18.7194 8.28799 18.7183 8.32816 18.7302C8.40798 18.7559 8.481 18.7986 8.54204 18.8551C9.10315 19.3038 9.59577 19.8622 9.7646 20.5517C9.77889 20.6342 9.80662 20.7139 9.84674 20.7878C9.86743 20.8245 9.89807 20.8549 9.93528 20.8757C9.9725 20.8964 10.0149 20.9067 10.0577 20.9054C10.113 20.8916 10.1616 20.859 10.1947 20.8134C10.2277 20.7678 10.2431 20.7122 10.2381 20.6565C10.2244 20.5455 10.1919 20.4375 10.1421 20.3369C10.1175 20.2865 10.1035 20.2317 10.1009 20.1758C10.0983 20.12 10.1071 20.0642 10.1268 20.0118C10.1777 19.9792 10.2376 19.9627 10.2984 19.9646C10.3592 19.9665 10.4179 19.9867 10.4666 20.0224C10.5622 20.0961 10.6408 20.1887 10.6973 20.2942L11.1576 21.0246C11.197 21.0921 11.2524 21.1494 11.3192 21.1915C11.386 21.2337 11.4621 21.2595 11.5412 21.2668C11.707 21.2704 11.8725 21.251 12.0327 21.2092C12.1937 21.1673 12.3633 21.1688 12.5235 21.2134C12.6201 21.251 12.7036 21.3149 12.7643 21.3975C12.8249 21.4801 12.8601 21.578 12.8657 21.6795C12.8714 21.7811 12.8472 21.8821 12.796 21.9706C12.7448 22.0591 12.6688 22.1315 12.577 22.1791C12.3887 22.2501 12.186 22.2765 11.9854 22.2563L11.0206 22.2341C10.8015 22.2391 10.5828 22.2127 10.3714 22.1557C10.1667 22.089 9.95414 21.965 9.753 22.0393C9.63309 22.0991 9.53284 22.1907 9.4638 22.3037C9.39432 22.4171 9.28606 22.5027 9.15821 22.5454C9.02738 22.5735 8.86492 22.4695 8.892 22.3411C8.80467 22.2231 8.69351 22.1239 8.56542 22.0496C8.43732 21.9753 8.295 21.9275 8.14726 21.9091C8.05487 21.9115 7.96374 21.8878 7.88468 21.841C7.76705 21.7449 7.80754 21.5648 7.80754 21.4148C7.80522 21.2843 7.76441 21.1573 7.69001 21.049C7.61561 20.9407 7.51081 20.8557 7.3882 20.8043C7.02107 20.6935 6.62601 20.7105 6.2703 20.8526C5.92144 20.9934 5.56122 21.1056 5.19336 21.188C5.03607 21.2008 4.87985 21.224 4.72577 21.2575C4.64863 21.2749 4.57658 21.3093 4.51517 21.3582C4.45375 21.4071 4.40461 21.4691 4.3715 21.5394C4.10255 22.2481 3.39581 22.7618 2.93641 23.3696C2.61133 23.7585 2.34624 24.1919 2.14959 24.656C2.08345 24.9018 2.0507 25.155 2.0522 25.4092C2.03855 25.576 2.02482 25.7427 2.01101 25.9093C1.99954 26.0118 1.99702 26.1151 2.0035 26.218C2.02027 26.3964 2.09039 26.5661 2.2051 26.7058C2.53936 26.7969 2.71843 27.21 2.82628 27.5327C2.93414 27.8554 3.02265 28.2117 3.2916 28.4261C3.41294 28.512 3.55173 28.5714 3.69858 28.6004C3.84543 28.6293 3.99692 28.6271 4.14282 28.5939C4.43384 28.5252 4.71313 28.4156 4.97197 28.2685C5.57745 27.9616 6.35995 28.2809 6.95155 28.6128C7.06255 28.6649 7.16908 28.7257 7.2701 28.7946C7.40958 28.9059 7.56204 29.0423 7.55817 29.2175C7.5285 29.3535 7.47689 29.4841 7.40526 29.6043C7.36716 29.7173 7.36807 29.8394 7.40787 29.9518C7.44767 30.0642 7.52414 30.1607 7.62552 30.2264C8.24738 30.6087 8.46354 31.5297 8.21347 32.2054C8.12246 32.4529 7.97046 32.6784 7.9047 32.9334C7.86163 33.0584 7.85848 33.1932 7.89568 33.32C7.93287 33.4467 8.00864 33.5594 8.1129 33.643C8.41212 33.8293 8.47423 34.2192 8.53817 34.5606C8.59073 34.8413 8.57094 35.1302 8.60643 35.4133C8.61399 35.556 8.65089 35.6957 8.71493 35.8242C8.77897 35.9526 8.86883 36.0671 8.97914 36.1609C9.32295 36.4083 8.98074 37.0531 9.24218 37.383C9.33394 37.4759 9.44611 37.5472 9.5702 37.5915C9.6943 37.6358 9.82706 37.652 9.95846 37.6387C10.5706 37.628 11.1545 37.3847 11.5865 36.9603C11.8029 36.746 12.0616 36.5443 12.1528 36.2566C12.1848 36.065 12.2462 35.8793 12.3349 35.7057C12.4711 35.5622 12.6288 35.4396 12.8025 35.342C12.9617 35.2216 13.0908 35.0109 12.9995 34.8364C12.9294 34.6653 12.9063 34.4792 12.9326 34.2967C12.9588 34.1142 13.0335 33.9416 13.1492 33.7961C13.3487 33.5821 13.5675 33.3861 13.8029 33.2105C14.0171 33.0102 14.187 32.7104 14.086 32.438C13.8807 31.8516 13.8531 31.2197 14.0064 30.6183C14.0714 30.3179 14.2062 30.0361 14.4004 29.7947C14.5946 29.5534 14.8428 29.3589 15.1261 29.2264C15.5057 29.0474 15.8188 28.7571 16.0217 28.3958C16.1407 28.2245 16.2046 28.0224 16.2052 27.8153C16.2058 27.6082 16.1431 27.4057 16.0251 27.2338C15.8517 27.0675 15.6262 26.9631 15.3848 26.9373C15.1559 26.916 14.9316 26.8607 14.7197 26.7733C14.539 26.6782 14.4006 26.5212 14.3311 26.3324C14.2824 26.1988 14.1249 26.1436 14.0234 26.0419C13.9175 25.9256 13.8286 25.7955 13.759 25.6553L13.3679 24.9494C13.0949 24.4579 12.8637 23.9144 12.5943 23.4217C12.5457 23.3473 12.5153 23.263 12.5053 23.1753C12.5015 23.1313 12.5129 23.0873 12.5377 23.0504C12.5624 23.0134 12.5991 22.9856 12.6418 22.9714C12.7453 22.9476 12.8382 23.0346 12.9064 23.1145C13.4788 23.7851 13.951 24.5318 14.3088 25.3322C14.4007 25.6273 14.5249 25.9119 14.6792 26.181C14.7663 26.31 14.8839 26.4166 15.0221 26.4917C15.1602 26.5668 15.3149 26.6082 15.4729 26.6124C15.7181 26.5821 15.9515 26.4913 16.1509 26.3484L17.1098 25.7753C17.319 25.663 17.5109 25.5223 17.68 25.3575C17.764 25.2746 17.8295 25.1753 17.872 25.0662C17.9145 24.957 17.9332 24.8403 17.9269 24.7237C17.9166 24.6071 17.8658 24.4976 17.783 24.4132C17.7002 24.3288 17.5904 24.2747 17.4718 24.2599C17.1277 24.2609 16.7865 24.1995 16.4654 24.0787C16.3727 24.055 16.2867 24.0108 16.2142 23.9495C16.1417 23.8882 16.0844 23.8115 16.0469 23.7253C15.9823 23.5102 15.8399 23.3256 15.6462 23.2058C15.5878 23.1732 15.5333 23.1344 15.4835 23.0901C15.4591 23.0677 15.4409 23.0396 15.4307 23.0085C15.4206 22.9773 15.4188 22.9441 15.4255 22.912C15.4348 22.8868 15.4499 22.8639 15.4696 22.8453C15.4893 22.8267 15.5132 22.8127 15.5393 22.8045C15.5921 22.789 15.6475 22.7841 15.7022 22.79C15.8022 22.7938 15.9001 22.8191 15.9889 22.8644C16.1762 22.9672 16.2827 23.1835 16.4535 23.3108C16.621 23.4458 16.8341 23.5144 17.0508 23.5034C17.1613 23.4785 17.2743 23.4667 17.3876 23.468C17.52 23.5033 17.6414 23.5701 17.7409 23.6625C17.7909 23.7084 17.851 23.7423 17.9165 23.7616C17.9821 23.7809 18.0514 23.7851 18.1189 23.7738C18.4889 23.6607 18.908 23.8319 19.2944 23.8606C19.4009 23.8611 19.5061 23.8838 19.6029 23.9273C19.6508 23.9502 19.6902 23.9871 19.7156 24.033C19.7409 24.0788 19.751 24.1313 19.7442 24.1831C19.7169 24.2776 19.7208 24.3781 19.7552 24.4703C19.7897 24.5626 19.8529 24.6419 19.936 24.6969C20.0191 24.752 20.1179 24.7801 20.2182 24.7772C20.3186 24.7743 20.4154 24.7405 20.4951 24.6807C20.6127 24.5939 20.779 24.7123 20.8364 24.8454C20.8792 24.9839 20.8931 25.1294 20.8771 25.2732C20.8744 25.5725 20.934 25.8691 21.0521 26.1452C21.2156 26.5498 21.4199 26.9375 21.6619 27.3025C21.7377 27.4116 21.8323 27.5302 21.9666 27.5407C22.0388 27.538 22.108 27.5122 22.1639 27.4674C22.2197 27.4225 22.259 27.361 22.2758 27.2923C22.3061 27.1545 22.3181 27.0134 22.3115 26.8725C22.3228 26.6548 22.3823 26.4421 22.4857 26.249C22.5892 26.056 22.7342 25.8871 22.9108 25.7542C23.1463 25.5794 23.3391 25.3442 23.5787 25.1755C23.6935 25.1118 23.7825 25.0113 23.8306 24.8911C23.8576 24.7876 23.8255 24.6656 23.8911 24.5795C23.9157 24.5515 23.947 24.53 23.9821 24.5167C24.0173 24.5033 24.0553 24.4987 24.0927 24.5031C24.1673 24.5128 24.2398 24.5346 24.3072 24.5674C24.5449 24.6498 24.7626 24.7793 24.9469 24.9476C25.0598 25.0516 25.1423 25.1833 25.1858 25.3291C25.2061 25.4801 25.24 25.629 25.287 25.7742C25.3119 25.8465 25.3584 25.9098 25.4204 25.9561C25.4825 26.0023 25.5573 26.0292 25.6352 26.0335C25.7112 26.0295 25.7833 25.9939 25.8593 25.995C25.9134 25.9996 25.9654 26.018 26.0101 26.0484C26.0547 26.0787 26.0905 26.1199 26.1139 26.1679C26.1592 26.2645 26.1868 26.3682 26.1954 26.4742C26.2679 26.9916 26.1858 27.5483 26.4095 28.0223C26.4808 28.1649 26.5625 28.3022 26.6541 28.4332L27.0568 29.041C27.1334 29.1428 27.2447 29.2144 27.3706 29.2429C27.4079 29.2607 27.4495 29.2681 27.4908 29.2642C27.5321 29.2603 27.5715 29.2452 27.6045 29.2206C27.6228 29.1983 27.6349 29.1718 27.6395 29.1436C27.6442 29.1154 27.6413 29.0865 27.6311 29.0597C27.6098 29.0063 27.579 28.957 27.5401 28.9141C27.4163 28.7583 27.3305 28.5859 27.2202 28.4209C27.1098 28.256 27.0004 28.0944 26.8893 27.9313C26.7868 27.7955 26.7036 27.6466 26.6422 27.4888C26.6121 27.4098 26.599 27.3255 26.6037 27.2412C26.6083 27.157 26.6308 27.0746 26.6695 26.9992C26.7203 26.9128 26.7663 26.8409 26.8675 26.8289C26.9183 26.8237 26.9696 26.8319 27.0161 26.8528C27.0625 26.8736 27.1024 26.9063 27.1315 26.9473C27.1385 27.0513 27.268 27.1094 27.3683 27.1416C27.4739 27.1588 27.5702 27.2108 27.6414 27.289C27.6955 27.3729 27.6782 27.4893 27.7372 27.5692C27.76 27.6004 27.7925 27.6236 27.8299 27.6352C27.8672 27.6469 27.9075 27.6464 27.9446 27.6339C27.9817 27.6214 28.0136 27.5975 28.0357 27.5658C28.0578 27.5341 28.0688 27.4962 28.0671 27.4579C28.0751 27.401 28.095 27.3463 28.1256 27.2972C28.1561 27.2482 28.1967 27.2058 28.2448 27.1728C28.3311 27.1248 28.4114 27.0673 28.4842 27.0012C28.5444 26.9308 28.5767 26.8416 28.5753 26.7498C28.5738 26.658 28.5386 26.5698 28.4762 26.5013C28.1062 26.172 27.8348 25.7505 27.691 25.2819C27.6669 25.1956 27.6625 25.1053 27.678 25.0172C27.6864 24.9733 27.7064 24.9323 27.7361 24.8983C27.7658 24.8644 27.8042 24.8387 27.8473 24.8238C28.0707 24.7745 28.2981 24.7441 28.5269 24.733C28.6705 24.7243 28.8127 24.7005 28.9511 24.662C29.0902 24.6229 29.2127 24.5409 29.3003 24.4281C29.5007 24.2074 29.7407 24.0245 30.0084 23.8884C30.1256 23.8114 30.2462 23.701 30.2373 23.5635C30.2292 23.4126 30.2752 23.2636 30.3673 23.1424C30.4683 23.0233 30.5611 22.8978 30.6451 22.7667C30.6862 22.7004 30.708 22.6244 30.7082 22.5468C30.7084 22.4693 30.687 22.3932 30.6462 22.3267C30.5561 22.2197 30.4885 22.0962 30.4476 21.9634C30.4298 21.8569 30.4179 21.7496 30.4119 21.6418C30.3813 21.4143 30.2708 21.2043 30.0992 21.0478C30.0289 20.9785 29.9864 20.8868 29.9794 20.7894C29.9725 20.692 30.0016 20.5954 30.0615 20.5172C30.1322 20.4373 30.2435 20.3819 30.2662 20.2784C30.289 20.1684 30.1957 20.0683 30.0997 20.0069C29.9954 19.9589 29.9059 19.8848 29.8403 19.7921C29.8137 19.7265 29.8117 19.6537 29.8348 19.5869C29.8579 19.52 29.9045 19.4633 29.9663 19.4269C30.0295 19.3926 30.0996 19.3725 30.1717 19.3679C30.2438 19.3632 30.316 19.3743 30.3832 19.4001C30.6098 19.4956 30.8005 19.6574 30.9293 19.8633C31.0818 20.1172 31.206 20.3863 31.2999 20.6661C31.3269 20.7473 31.3753 20.82 31.4403 20.8769C31.5059 20.9156 31.5837 20.9291 31.6589 20.9149C31.734 20.9007 31.8011 20.8597 31.8472 20.7999C31.8907 20.7382 31.9203 20.6683 31.934 20.5946C31.9477 20.5209 31.9453 20.4452 31.9268 20.3725C31.8617 20.1857 31.7563 20.0147 31.6176 19.8713C31.4842 19.7428 31.4048 19.5701 31.3948 19.3872C31.3849 19.2043 31.4452 19.0244 31.5639 18.8827C31.6566 18.6652 31.787 18.465 31.9493 18.2909C32.0683 18.1774 32.2135 18.0932 32.3384 17.986C32.4045 17.9365 32.46 17.8746 32.5015 17.8041C32.5431 17.7335 32.5701 17.6557 32.5808 17.5749C32.6188 16.8562 32.9111 16.1819 32.7541 15.4788C32.6732 15.1598 32.5364 14.8569 32.3498 14.5836C32.2332 14.3727 32.0507 14.2039 31.829 14.1018C31.7898 14.0871 31.7493 14.0757 31.7104 14.0601C31.6239 14.025 31.5482 13.9683 31.4909 13.8959C31.4335 13.8234 31.3965 13.7375 31.3834 13.6467C31.3703 13.556 31.3816 13.4635 31.4162 13.3783C31.4508 13.2931 31.5075 13.2182 31.5807 13.161C31.6593 13.0868 31.7159 12.9932 31.7448 12.8902C31.7736 12.7871 31.7735 12.6784 31.7446 12.5754C31.7071 12.4605 31.6935 12.3395 31.7043 12.2193C31.7332 12.1216 31.8002 12.0389 31.8909 11.989C31.9807 11.9398 32.0768 11.9024 32.1766 11.8777C32.5901 11.7573 33.0395 11.8407 33.4568 11.7339C33.6175 11.7055 33.766 11.631 33.8834 11.52C33.9397 11.4627 33.9721 11.387 33.9742 11.3075C33.9764 11.2281 33.9481 11.1508 33.895 11.0907C33.8805 10.8955 33.8652 10.6854 33.8495 10.4898C33.838 10.4041 33.8414 10.3171 33.8595 10.2325C33.869 10.1902 33.889 10.1509 33.9179 10.1181C33.9467 10.0854 33.9834 10.0601 34.0247 10.0446C34.2236 9.98453 34.4227 10.2409 34.6177 10.1697C34.6919 10.2104 34.7626 10.1214 34.7856 10.0415C34.8086 9.96161 34.822 9.86346 34.8994 9.82807C34.9198 9.82207 34.9413 9.82009 34.9626 9.82226C34.9838 9.82442 35.0044 9.83068 35.0232 9.84068C35.042 9.85067 35.0585 9.8642 35.0719 9.88049C35.0853 9.89678 35.0952 9.9155 35.1012 9.93557C35.1218 10.0181 35.1185 10.1045 35.0916 10.1853C35.0498 10.3648 35.008 10.5444 34.9663 10.7241C34.8466 11.2387 34.727 11.7533 34.6074 12.2681C34.5764 12.4125 34.5762 12.5616 34.6068 12.7061C34.6374 12.8507 34.6981 12.9875 34.7851 13.108C35.0878 13.5748 35.36 14.0597 35.6002 14.56C35.6258 14.6252 35.6748 14.679 35.7381 14.7114C35.8625 14.7559 35.9834 14.6137 35.9863 14.4839C35.9699 14.3554 35.9425 14.2284 35.9042 14.1044C35.8559 13.7928 36.0721 13.5093 36.1656 13.2082C36.2222 12.983 36.2282 12.7485 36.1833 12.5208C36.1384 12.2932 36.0437 12.0777 35.9055 11.8892C35.7451 11.6511 35.498 11.4733 35.4607 11.1906C35.438 11.0493 35.4621 10.9047 35.5295 10.7778C35.5969 10.6509 35.704 10.5484 35.8352 10.4853C35.9469 10.4492 36.0628 10.4272 36.1802 10.4199C36.298 10.4124 36.4118 10.3749 36.5101 10.311C36.5585 10.2781 36.5949 10.231 36.614 10.1765C36.6332 10.122 36.6342 10.063 36.6168 10.0079C36.5913 9.90868 36.5905 9.8049 36.6146 9.70532C36.6386 9.60574 36.6867 9.51327 36.7549 9.43569C36.8939 9.28117 36.9843 9.09078 37.0155 8.88729C37.0155 8.78157 36.9836 8.65983 37.0558 8.58082C37.097 8.54793 37.1407 8.51817 37.1866 8.49179C37.2126 8.46748 37.2323 8.43744 37.244 8.40418C37.2558 8.37092 37.2593 8.3354 37.2541 8.30056C37.249 8.26573 37.2355 8.2326 37.2146 8.20392C37.1938 8.17524 37.1662 8.15185 37.1343 8.13569C37.0516 8.10569 36.9766 8.0585 36.9144 7.99736C36.8522 7.93622 36.8043 7.8626 36.7741 7.78159C36.7383 7.61852 36.7383 7.44989 36.7741 7.28683C36.7852 7.13339 36.8289 6.98391 36.9024 6.84793C36.9405 6.78071 36.9988 6.72651 37.0693 6.69257C37.1398 6.65864 37.2192 6.64661 37.2969 6.65808C37.45 6.6733 37.5954 6.73081 37.7163 6.82389C37.7779 6.89585 37.8354 6.97104 37.8885 7.04912C37.9425 7.12778 38.0231 7.18537 38.1161 7.21182C38.1627 7.22329 38.2119 7.21765 38.2546 7.19594C38.2972 7.17424 38.3302 7.138 38.3473 7.09408C38.3534 7.06036 38.3516 7.02571 38.342 6.99277C38.3324 6.95983 38.3152 6.92947 38.2917 6.90401V6.90401ZM13.7151 19.4467C13.6758 19.5224 13.6135 19.5844 13.5368 19.6242C13.46 19.6641 13.3726 19.6798 13.2864 19.6692C13.1151 19.6446 12.946 19.607 12.7806 19.5566C12.5861 19.5177 12.3851 19.522 12.1925 19.5693C11.9999 19.6166 11.8206 19.7057 11.668 19.8299C11.5383 19.937 11.3358 20.1353 11.1596 19.9882C11.1064 19.926 11.0718 19.8507 11.0596 19.7706C11.0473 19.6904 11.0579 19.6085 11.0902 19.5339C11.2151 19.1471 11.4388 18.7979 11.7403 18.5195L11.9606 18.3236C12.0014 18.2835 12.0482 18.2497 12.0994 18.2234C12.2764 18.144 12.4769 18.2573 12.6368 18.3661L13.3649 18.8611C13.4717 18.9256 13.5669 19.0069 13.6466 19.1017C13.6857 19.1495 13.7124 19.2058 13.7243 19.2659C13.7362 19.326 13.7331 19.388 13.7151 19.4467V19.4467ZM16.1953 20.6728C15.9702 20.8181 15.6785 20.6574 15.5564 20.4576C15.4546 20.2272 15.3971 19.9805 15.3868 19.7298C15.304 19.2361 14.7304 18.7202 14.9736 18.209C15.0202 18.112 15.0978 18.0326 15.1947 17.9828C15.2917 17.9329 15.4026 17.9155 15.5106 17.933C15.6172 17.957 15.7103 18.02 15.7708 18.109C15.8314 18.198 15.8548 18.3064 15.8362 18.4117C15.7987 18.5675 15.6633 18.6857 15.6123 18.8384C15.5883 18.955 15.5948 19.0757 15.631 19.1893C15.6673 19.3029 15.7322 19.4057 15.8198 19.4883C15.9964 19.6512 16.1538 19.8329 16.2893 20.03C16.3541 20.1306 16.3804 20.2504 16.3633 20.3681C16.3463 20.4858 16.2871 20.5938 16.1962 20.6728H16.1953ZM17.596 18.8549C17.5676 18.916 17.5248 18.9697 17.4711 19.0116C17.4175 19.0536 17.3545 19.0825 17.2872 19.0961C17.2426 19.0942 17.1989 19.083 17.1591 19.0632C17.1193 19.0434 17.0842 19.0156 17.0562 18.9816C17.0282 18.9475 17.008 18.908 16.9968 18.8657C16.9856 18.8234 16.9838 18.7793 16.9914 18.7362C17.002 18.6939 17.0177 18.6529 17.0383 18.6143L17.1079 18.47C17.1252 18.4342 17.1427 18.3982 17.16 18.3621C17.1901 18.2738 17.2524 18.1995 17.335 18.1533C17.7571 17.9831 17.7064 18.6699 17.5969 18.8549H17.596Z" fill="#56BEE3"/>
<path opacity="0.26" d="M20.7671 16.4549C20.9055 16.6043 20.9798 16.8002 20.9744 17.0017C20.9355 17.2773 20.0884 17.9025 20.7494 17.9714C21.2131 18.02 21.9733 17.6779 21.7505 17.1166C21.6402 16.8373 21.338 16.6801 21.2254 16.4004C21.1795 16.2218 21.1479 16.0401 21.1307 15.8569C21.0898 15.677 20.9537 15.4887 20.7667 15.4945C20.5619 15.5007 20.4383 15.7407 20.4731 15.9372C20.5287 16.1297 20.6294 16.307 20.7671 16.4549V16.4549Z" fill="#56BEE3"/>
<path opacity="0.26" d="M19.702 17.4846C19.7088 17.5459 19.728 17.6053 19.7585 17.6593C19.7738 17.6861 19.7951 17.7093 19.8208 17.7271C19.8464 17.745 19.8758 17.757 19.9068 17.7623C20.0142 17.7755 20.1036 17.6871 20.1737 17.6065C20.2793 17.4979 20.3655 17.3726 20.4285 17.236C20.5494 16.9293 20.3362 16.6057 19.9869 16.7744C19.8627 16.8394 19.7695 16.9494 19.7273 17.0808C19.6863 17.2116 19.6776 17.3499 19.702 17.4846V17.4846Z" fill="#56BEE3"/>
<path opacity="0.26" d="M30.4949 10.4451C30.5784 10.4834 30.6883 10.5087 30.754 10.4451C30.8869 10.3171 30.6935 10.125 30.635 10.0109C30.5877 9.89979 30.5528 9.78406 30.5308 9.66566C30.4664 9.42907 30.2025 9.05049 29.914 9.2873C29.8787 9.31861 29.8506 9.35679 29.8314 9.39938C29.8121 9.44196 29.8022 9.48801 29.8022 9.53457C29.8027 9.62771 29.8237 9.71966 29.8639 9.80409C29.9874 10.0858 30.2118 10.3137 30.4949 10.4451V10.4451Z" fill="#56BEE3"/>
<path opacity="0.26" d="M30.5843 8.5537C30.693 8.23348 30.9063 7.95706 31.1913 7.76693C31.455 7.57441 31.7395 7.33961 31.7638 7.01867C31.7747 6.87334 31.6837 6.69417 31.5351 6.70708C31.4572 6.72332 31.3876 6.76606 31.3388 6.82771L30.2386 7.93163C30.0632 8.10768 29.8746 8.33047 29.9326 8.56906C30.0254 8.94341 30.4693 8.84904 30.5843 8.5537Z" fill="#56BEE3"/>
<path opacity="0.26" d="M31.976 33.3634C31.9162 33.3869 31.8629 33.4238 31.8204 33.4712C31.7779 33.5186 31.7475 33.5752 31.7316 33.6363C31.7004 33.7587 31.6423 33.8731 31.5612 33.9712C31.4139 34.111 31.1616 34.1014 31.0205 34.2472C30.8795 34.393 30.912 34.5995 30.8767 34.7785C30.8484 34.9238 30.774 35.0567 30.664 35.1582C30.6076 35.203 30.5621 35.2594 30.5305 35.3234C30.499 35.3874 30.4822 35.4574 30.4815 35.5285C30.4807 35.5995 30.496 35.6698 30.5261 35.7345C30.5563 35.7991 30.6006 35.8564 30.656 35.9024C30.7519 35.9858 30.8729 36.0365 31.0008 36.0468C31.1287 36.0571 31.2565 36.0264 31.365 35.9594C31.472 35.8721 31.5591 35.7638 31.6207 35.6416C31.6823 35.5193 31.717 35.3858 31.7227 35.2496C31.7325 34.9772 31.7916 34.7087 31.897 34.4564C31.9841 34.3217 32.0792 34.1921 32.1817 34.0683C32.2845 33.9427 32.3342 33.7834 32.3207 33.6231C32.3156 33.5839 32.3026 33.5461 32.2824 33.5118C32.2623 33.4775 32.2355 33.4474 32.2035 33.4233C32.1714 33.3991 32.1348 33.3814 32.0958 33.3712C32.0568 33.3609 32.016 33.3582 31.976 33.3634V33.3634Z" fill="#56BEE3"/>
</g>
<defs>
<linearGradient id="paint0_linear" x1="18.5054" y1="45.8803" x2="19.6245" y2="-9.92793" gradientUnits="userSpaceOnUse">
<stop stop-color="#3C8ECF"/>
<stop offset="1" stop-color="#56BEE3"/>
</linearGradient>
</defs>
</svg>
