<svg width="39" height="39" viewBox="0 0 39 39" fill="none" xmlns="http://www.w3.org/2000/svg">
<path d="M0 39L2.68963 29.25C0.941408 26.2241 0 22.8621 0 19.3655C0 8.74141 8.74141 0 19.4327 0C30.1241 0 39 8.74141 39 19.3655C39 29.9896 30.1241 39 19.4327 39C16.0707 39 12.8431 37.9241 9.9517 36.3104L0 39Z" fill="#EDEDED"/>
<path d="M10.4899 32.8138L11.095 33.15C13.583 34.6965 16.4744 35.6379 19.5002 35.6379C28.3088 35.6379 35.6382 28.3086 35.6382 19.3655C35.6382 10.4224 28.3088 3.36206 19.433 3.36206C10.5571 3.36206 3.3623 10.4896 3.3623 19.3655C3.3623 22.4586 4.23645 25.4844 5.85023 28.0396L6.25371 28.6448L4.7072 34.2931L10.4899 32.8138Z" fill="#55CD6C"/>
<path d="M14.2553 10.3552L12.9778 10.288C12.5743 10.288 12.1709 10.4225 11.9019 10.6914C11.2967 11.2294 10.2881 12.238 10.0192 13.5829C9.5485 15.6001 10.2881 18.0208 12.0364 20.4414C13.7847 22.8621 17.1468 26.7621 23.064 28.4432C24.9467 28.9811 26.4261 28.6449 27.6364 27.9052C28.5778 27.3 29.1829 26.3587 29.3847 25.35L29.5864 24.4086C29.6537 24.1397 29.5192 23.8034 29.2502 23.669L25.014 21.719C24.745 21.5845 24.4088 21.6517 24.2071 21.9207L22.5261 24.0724C22.3915 24.2069 22.1898 24.2741 21.9881 24.2069C20.845 23.8034 17.0123 22.1897 14.9278 18.1552C14.8605 17.9535 14.8605 17.7517 14.995 17.6173L16.6088 15.8018C16.7433 15.6001 16.8105 15.3312 16.7433 15.1294L14.7933 10.7587C14.726 10.5569 14.5243 10.3552 14.2553 10.3552Z" fill="#FEFEFE"/>
</svg>
